<svg width="70" height="70" viewBox="0 0 70 70" fill="none" xmlns="http://www.w3.org/2000/svg">
<circle cx="35" cy="35" r="35" fill="white"/>
<path d="M46.7164 36.4469C47.6008 36.4469 48.3177 35.73 48.3177 34.8456C48.3177 33.9613 47.6008 33.2443 46.7164 33.2443C45.8321 33.2443 45.1151 33.9613 45.1151 34.8456C45.1151 35.73 45.8321 36.4469 46.7164 36.4469Z" fill="#7D5FFF"/>
<path d="M52.7293 38.6269H45.3385C44.5883 38.6554 43.8574 38.3852 43.306 37.8756C42.7547 37.3661 42.428 36.6586 42.3975 35.9085V33.783C42.428 33.0329 42.7547 32.3254 43.306 31.8158C43.8574 31.3062 44.5883 31.036 45.3385 31.0645H52.7293C54.3569 31.0645 55 32.2853 55 33.783V35.9068C55 37.4062 54.3705 38.6269 52.7293 38.6269ZM45.3385 32.2471C45.1316 32.2419 44.9258 32.2775 44.7327 32.3519C44.5396 32.4262 44.3631 32.538 44.2132 32.6806C44.0634 32.8232 43.943 32.994 43.8591 33.1832C43.7753 33.3723 43.7295 33.5761 43.7244 33.783V35.9068C43.738 36.3223 43.9152 36.7156 44.2176 37.001C44.52 37.2863 44.9229 37.4405 45.3385 37.43H52.7293C53.6085 37.43 53.6748 36.7503 53.6748 35.9068V33.783C53.6748 32.9428 53.6748 32.2471 52.7293 32.2471H45.3385Z" fill="#18DCFF" stroke="#18DCFF"/>
<path d="M50.1569 24.0016H25.4896C24.7403 23.9765 24.0113 24.2478 23.4607 24.7567C22.9101 25.2656 22.5824 25.9711 22.5486 26.7201V29.2533H23.8874V26.7201C23.8925 26.5148 23.938 26.3126 24.0213 26.1249C24.1046 25.9372 24.224 25.7678 24.3728 25.6264C24.5216 25.4849 24.6968 25.3741 24.8885 25.3005C25.0801 25.2268 25.2844 25.1916 25.4896 25.1969H50.1569C50.5682 25.1931 50.9646 25.3503 51.2615 25.6349C51.5583 25.9196 51.732 26.309 51.7455 26.7201V31.0653H53.058V26.7201C53.0275 25.977 52.7063 25.2757 52.1636 24.7673C51.6211 24.2588 50.9003 23.9838 50.1569 24.0016Z" fill="#18DCFF" stroke="#18DCFF"/>
<path d="M51.7447 38.6269V43.6942C51.7312 44.1097 51.5539 44.5031 51.2515 44.7884C50.9491 45.0738 50.5462 45.228 50.1306 45.2174H29.9784C29.5494 45.6645 29.0741 46.0649 28.5606 46.4118H50.1561C50.8995 46.4296 51.6202 46.1546 52.1628 45.6462C52.7055 45.1377 53.0267 44.4364 53.0572 43.6934V38.5963H52.6893L51.7447 38.6269Z" fill="#18DCFF" stroke="#18DCFF"/>
<path d="M23.2707 30.3169C21.3575 30.3169 19.5034 30.9803 18.0244 32.1939C16.5454 33.4075 15.5328 35.0963 15.1592 36.9727C14.7856 38.8491 15.0741 40.797 15.9755 42.4845C16.8769 44.1721 18.3355 45.495 20.1028 46.2278C21.8702 46.9606 23.8369 47.0582 25.668 46.5036C27.499 45.9491 29.0813 44.777 30.1452 43.1868C31.209 41.5966 31.6887 39.6868 31.5025 37.7827C31.3162 35.8786 30.4757 34.0979 29.1238 32.7439C27.5715 31.1912 25.4663 30.3182 23.2707 30.3169ZM23.2707 45.8868C21.829 45.8895 20.419 45.4644 19.219 44.6654C18.0189 43.8665 17.0829 42.7295 16.5294 41.3983C15.9758 40.0671 15.8296 38.6017 16.1092 37.1874C16.3888 35.7731 17.0816 34.4736 18.1001 33.4531C19.1186 32.4328 20.4168 31.7375 21.8306 31.4552C23.2443 31.173 24.7101 31.3165 26.0423 31.8676C27.3745 32.4187 28.5132 33.3525 29.3145 34.551C30.1157 35.7496 30.5434 37.1589 30.5434 38.6005C30.5434 40.5306 29.7776 42.3818 28.4141 43.7479C27.0506 45.114 25.2008 45.8832 23.2707 45.8868Z" fill="#18DCFF" stroke="#18DCFF"/>
<path d="M23.664 38.574V35.4793C23.6644 35.3979 23.6488 35.3172 23.6179 35.2418C23.587 35.1666 23.5415 35.0981 23.484 35.0404C23.4265 34.9827 23.3582 34.937 23.2829 34.9059C23.2076 34.8748 23.127 34.8589 23.0456 34.8591C22.9633 34.8576 22.8815 34.8725 22.8051 34.903C22.7287 34.9334 22.6591 34.9789 22.6005 35.0367C22.5419 35.0945 22.4955 35.1634 22.464 35.2394C22.4325 35.3155 22.4165 35.397 22.4169 35.4793V39.2469C22.4188 39.3478 22.4449 39.4467 22.4929 39.5353C22.5409 39.624 22.6096 39.6999 22.693 39.7566L25.1345 41.4259C25.2709 41.5179 25.4379 41.5531 25.5998 41.5237C25.7617 41.4943 25.9057 41.4028 26.001 41.2687C26.0486 41.2007 26.0822 41.124 26.1002 41.043C26.118 40.9619 26.1196 40.8782 26.1051 40.7964C26.0905 40.7148 26.0599 40.6367 26.015 40.5669C25.9702 40.4971 25.9121 40.4368 25.8439 40.3894L23.9401 39.0736C23.8587 39.0172 23.7915 38.9428 23.7436 38.8562C23.6957 38.7695 23.6685 38.673 23.664 38.574Z" fill="#7D5FFF"/>
</svg>
