<svg width="70" height="70" viewBox="0 0 70 70" fill="none" xmlns="http://www.w3.org/2000/svg">
<circle cx="35" cy="35" r="35" fill="white"/>
<path d="M41.1188 26.2921H29.7103V27.9289H41.1188V26.2921Z" fill="#18DCFF"/>
<path d="M26.2428 30.2113C25.3627 30.2113 24.5024 29.9503 23.7708 29.4609C23.0392 28.9717 22.4692 28.2765 22.133 27.4631C21.7968 26.6498 21.7095 25.755 21.8821 24.892C22.0547 24.029 22.4795 23.2366 23.1027 22.6152C23.7259 21.9938 24.5195 21.5712 25.383 21.4011C26.2465 21.2309 27.141 21.3208 27.9534 21.6593C28.7658 21.9978 29.4595 22.5698 29.9466 23.3028C30.4337 24.0358 30.6924 24.8968 30.6899 25.7769C30.6865 26.9541 30.2165 28.082 29.3829 28.9133C28.5493 29.7446 27.4201 30.2113 26.2428 30.2113ZM26.2428 22.6054C25.6155 22.6054 25.0024 22.7914 24.4808 23.1399C23.9593 23.4884 23.5528 23.9837 23.3127 24.5632C23.0727 25.1427 23.0099 25.7804 23.1322 26.3956C23.2546 27.0108 23.5567 27.576 24.0002 28.0195C24.4438 28.4631 25.0089 28.7651 25.6241 28.8875C26.2393 29.0098 26.8769 28.947 27.4565 28.707C28.036 28.4669 28.5313 28.0604 28.8798 27.5389C29.2283 27.0173 29.4143 26.4042 29.4143 25.7769C29.4143 24.9358 29.0801 24.1291 28.4854 23.5343C27.8906 22.9395 27.084 22.6054 26.2428 22.6054Z" fill="#7D5FFF" stroke="#7D5FFF" stroke-width="0.5"/>
<path d="M44.5863 30.2113C43.7062 30.2113 42.8459 29.9503 42.1144 29.4609C41.3828 28.9717 40.8127 28.2765 40.4765 27.4631C40.1403 26.6498 40.053 25.755 40.2256 24.892C40.3982 24.029 40.8231 23.2366 41.4463 22.6152C42.0695 21.9938 42.8631 21.5712 43.7265 21.4011C44.59 21.2309 45.4846 21.3208 46.297 21.6593C47.1093 21.9978 47.803 22.5698 48.2902 23.3028C48.7772 24.0358 49.0359 24.8968 49.0334 25.7769C49.0301 26.9541 48.5601 28.082 47.7264 28.9133C46.8928 29.7446 45.7636 30.2113 44.5863 30.2113ZM44.5863 22.6054C43.959 22.6054 43.3458 22.7914 42.8243 23.1399C42.3028 23.4884 41.8963 23.9837 41.6562 24.5632C41.4162 25.1427 41.3534 25.7804 41.4758 26.3956C41.5982 27.0108 41.9002 27.576 42.3438 28.0195C42.7873 28.4631 43.3524 28.7651 43.9676 28.8875C44.5828 29.0098 45.2205 28.947 45.8 28.707C46.3796 28.4669 46.8748 28.0604 47.2233 27.5389C47.5718 27.0173 47.7578 26.4042 47.7578 25.7769C47.7578 25.3604 47.6758 24.948 47.5164 24.5632C47.357 24.1784 47.1234 23.8288 46.8289 23.5343C46.5344 23.2398 46.1848 23.0062 45.8 22.8468C45.4153 22.6874 45.0028 22.6054 44.5863 22.6054Z" fill="#7D5FFF" stroke="#7D5FFF" stroke-width="0.5"/>
<path d="M35.4214 25.7643C34.5407 25.7668 33.6792 25.5078 32.9459 25.0201C32.2127 24.5324 31.6407 23.838 31.3025 23.0249C30.9644 22.2118 30.8752 21.3165 31.0464 20.4527C31.2176 19.5889 31.6415 18.7953 32.2642 18.1726C32.8868 17.5499 33.6804 17.1261 34.5442 16.9549C35.408 16.7837 36.3033 16.8729 37.1164 17.211C37.9296 17.5492 38.6239 18.1212 39.1116 18.8544C39.5993 19.5877 39.8584 20.4492 39.8558 21.3298C39.8525 22.5049 39.3842 23.6309 38.5533 24.4618C37.7224 25.2927 36.5964 25.7609 35.4214 25.7643ZM35.4214 18.1583C35.423 17.3196 35.7576 16.5158 36.3516 15.9236C36.9457 15.3313 37.7504 14.9992 38.5892 15C39.428 15.0008 40.2321 15.3346 40.8249 15.928C41.4177 16.5214 41.7507 17.3259 41.7507 18.1647C41.7507 19.0034 41.4177 19.8079 40.8249 20.4013C40.2321 20.9947 39.428 21.3285 38.5892 21.3294C37.7504 21.3302 36.9457 20.998 36.3516 20.4058C35.7576 19.8136 35.423 19.0098 35.4214 18.171V18.1583Z" fill="#7D5FFF" stroke="#7D5FFF" stroke-width="0.5"/>
<path d="M48.3634 31.1909H41.9182C41.5095 31.1967 41.1064 31.2868 40.7341 31.4557C40.3619 31.6245 40.0286 31.8687 39.7552 32.1725C39.4818 32.4764 39.2742 32.8335 39.1454 33.2214C39.0165 33.6093 38.9693 34.0197 39.0067 34.4267V53.4537H36.4915V43.7727C36.4627 43.5074 36.3369 43.262 36.1381 43.0837C35.9395 42.9055 35.6819 42.8069 35.415 42.8069C35.1481 42.8069 34.8906 42.9055 34.6919 43.0837C34.4932 43.262 34.3674 43.5074 34.3385 43.7727V53.4665H31.8506V34.4267C31.888 34.0196 31.8407 33.609 31.7118 33.2209C31.5828 32.8329 31.375 32.4757 31.1014 32.1718C30.8278 31.8679 30.4943 31.6239 30.1218 31.4551C29.7494 31.2863 29.346 31.1964 28.9372 31.1909H22.4919C21.05 31.1806 19.6627 31.7417 18.6335 32.7516C17.6043 33.7614 17.017 35.1379 17 36.5798V41.4485C17 43.2402 18.521 44.1301 20.3107 44.1301C20.6753 44.1301 21.0373 44.0692 21.3819 43.95V53.9172C21.3852 54.2034 21.5003 54.4769 21.7026 54.6793C21.905 54.8816 22.1785 54.9968 22.4647 55H48.3664C48.6525 54.9968 48.9261 54.8816 49.1284 54.6793C49.3308 54.4769 49.4459 54.2034 49.4492 53.9172V43.9529C49.7937 44.0722 50.1557 44.133 50.5203 44.133C52.312 44.133 53.831 43.244 53.831 41.4513V36.5826C53.8149 35.1445 53.2312 33.7711 52.2072 32.7612C51.1831 31.7514 49.8017 31.187 48.3634 31.1909ZM30.316 53.4537H28.0764V45.3969C28.0807 45.1373 27.9996 44.8835 27.8458 44.6743C27.6918 44.4652 27.4735 44.3123 27.2243 44.2392C27.0543 44.1936 26.876 44.1878 26.7034 44.2222C26.5307 44.2566 26.3683 44.3302 26.2287 44.4374C26.089 44.5447 25.976 44.6826 25.8982 44.8405C25.8205 44.9985 25.7801 45.1723 25.7803 45.3483V53.4566H23.4433V36.2213C23.4473 35.9599 23.3648 35.7044 23.2086 35.4946C23.0524 35.2849 22.8313 35.1327 22.5796 35.0616C22.4088 35.0216 22.231 35.0216 22.0602 35.0618C21.8895 35.1021 21.7303 35.1814 21.5954 35.2934C21.4605 35.4055 21.3534 35.5475 21.2825 35.708C21.2117 35.8684 21.179 36.0432 21.1871 36.2184V41.3793C21.1675 41.5873 21.071 41.7803 20.9164 41.9207C20.7776 42.0711 20.6092 42.1911 20.4218 42.2732C20.2343 42.3552 20.0319 42.3976 19.8273 42.3976C19.6226 42.3976 19.4202 42.3552 19.2328 42.2732C19.0453 42.1911 18.8769 42.0711 18.7381 41.9207C18.6114 41.7689 18.5424 41.5771 18.5434 41.3793V36.2184C18.6275 35.2737 19.064 34.3951 19.7661 33.7573C20.4683 33.1195 21.3847 32.7693 22.3332 32.7762H29.2205C29.5247 32.7762 29.8166 32.8971 30.0317 33.1122C30.2468 33.3273 30.3676 33.6191 30.3676 33.9233L30.316 53.4537ZM52.2312 41.3101C52.2146 41.6225 52.0778 41.9164 51.8495 42.1302C51.6212 42.344 51.319 42.4612 51.0062 42.4572C50.3742 42.4572 49.5884 41.9411 49.5884 41.3101V36.2184C49.5884 35.9142 49.4676 35.6225 49.2525 35.4074C49.0374 35.1923 48.7455 35.0713 48.4413 35.0713C48.1371 35.0713 47.8453 35.1923 47.6302 35.4074C47.4151 35.6225 47.2943 35.9142 47.2943 36.2184V53.4537H45.0546V45.3453C45.0546 45.0411 44.9338 44.7494 44.7187 44.5343C44.5036 44.3192 44.2118 44.1983 43.9076 44.1983C43.6034 44.1983 43.3115 44.3192 43.0964 44.5343C42.8813 44.7494 42.7605 45.0411 42.7605 45.3453V53.4537H40.4615V33.8726C40.4615 33.5684 40.5823 33.2767 40.7974 33.0616C41.0125 32.8465 41.3043 32.7256 41.6085 32.7256H48.492C49.4487 32.7197 50.372 33.0771 51.0754 33.7256C51.779 34.3741 52.21 35.2654 52.2818 36.2194L52.2312 41.3101Z" fill="#18DCFF"/>
</svg>
