<svg xmlns:dc="http://purl.org/dc/elements/1.1/" xmlns:cc="http://creativecommons.org/ns#" xmlns:rdf="http://www.w3.org/1999/02/22-rdf-syntax-ns#" xmlns:svg="http://www.w3.org/2000/svg" xmlns="http://www.w3.org/2000/svg" viewBox="0 0 148.50667 41.816933" xml:space="preserve" id="svg2" version="1.1"><metadata id="metadata8"><rdf:rdf><cc:work rdf:about=""><dc:format>image/svg+xml</dc:format><dc:type rdf:resource="http://purl.org/dc/dcmitype/StillImage"></dc:type></cc:work></rdf:rdf></metadata><defs id="defs6"><clipPath id="clipPath18" clipPathUnits="userSpaceOnUse"><path id="path16" d="M 0,31.363 H 111.38 V 0 H 0 Z"></path></clipPath><clipPath id="clipPath36" clipPathUnits="userSpaceOnUse"><path id="path34" d="M 11.7054,21.8654 H 25.8976 V 9.49725 H 11.7054 Z"></path></clipPath><clipPath id="clipPath52" clipPathUnits="userSpaceOnUse"><path id="path50" d="M 20.8641,21.8654 H 31.8683 V 9.49725 H 20.8641 Z"></path></clipPath><clipPath id="clipPath68" clipPathUnits="userSpaceOnUse"><path id="path66" d="M 27.772,21.9095 H 39.9689 V 9.45322 H 27.772 Z"></path></clipPath><clipPath id="clipPath84" clipPathUnits="userSpaceOnUse"><path id="path82" d="m 38.0645,21.8654 h 11.799 V 9.49725 h -11.799 z"></path></clipPath><clipPath id="clipPath100" clipPathUnits="userSpaceOnUse"><path id="path98" d="M 20.8705,21.8479 H 25.904 V 9.48625 h -5.0335 z"></path></clipPath><clipPath id="clipPath116" clipPathUnits="userSpaceOnUse"><path id="path114" d="m 27.7785,20.6985 h 4.0962 V 10.4292 h -4.0962 z"></path></clipPath><clipPath id="clipPath132" clipPathUnits="userSpaceOnUse"><path id="path130" d="m 38.071,20.3812 h 1.8698 V 16.9064 H 38.071 Z"></path></clipPath><clipPath id="clipPath148" clipPathUnits="userSpaceOnUse"><path id="path146" d="m 38.071,14.574 h 1.9043 V 10.9493 H 38.071 Z"></path></clipPath></defs><g transform="matrix(1.3333333,0,0,-1.3333333,0,41.816933)" id="g10"><g id="g12"><g clip-path="url(#clipPath18)" id="g14"><g transform="translate(7.4878,1.6084)" id="g20"><path id="path22" style="fill:#231f20;fill-opacity:1;fill-rule:nonzero;stroke:none" d="m 0,0 c -2.412,0 -4.374,1.962 -4.374,4.373 v 19.399 c 0,2.412 1.962,4.374 4.374,4.374 h 96.405 c 2.411,0 4.374,-1.962 4.374,-4.374 V 4.373 C 100.779,1.962 98.816,0 96.405,0 Z"></path></g><g transform="translate(103.8926,30.7725)" id="g24"><path id="path26" style="fill:#ffffff;fill-opacity:1;fill-rule:nonzero;stroke:none" d="m 0,0 h -96.405 c -2.973,0 -5.392,-2.418 -5.392,-5.392 V -24.79 c 0,-2.974 2.419,-5.393 5.392,-5.393 H 0 c 2.973,0 5.392,2.419 5.392,5.393 V -5.392 C 5.392,-2.418 2.973,0 0,0 m 0,-2.036 c 1.854,0 3.355,-1.503 3.355,-3.356 V -24.79 c 0,-1.854 -1.501,-3.356 -3.355,-3.356 h -96.405 c -1.853,0 -3.356,1.502 -3.356,3.356 v 19.398 c 0,1.853 1.503,3.356 3.356,3.356 H 0"></path></g><path id="path28" style="fill:#ffffff;fill-opacity:1;fill-rule:nonzero;stroke:none" d="m 55.996,1.902 h -0.611 v 27.559 h 0.611 z"></path><g id="g30"><g id="g32"></g><g id="g44"><g style="opacity:0.60000598" id="g42" clip-path="url(#clipPath36)"><g id="g40" transform="translate(11.7056,9.4971)"><path id="path38" style="fill:#ffffff;fill-opacity:1;fill-rule:nonzero;stroke:none" d="M 0,0 4.982,12.368 H 9.159 L 14.192,0.007 H 9.165 L 7.079,5.678 4.986,0 Z"></path></g></g></g></g><g id="g46"><g id="g48"></g><g id="g60"><g style="opacity:0.60000598" id="g58" clip-path="url(#clipPath52)"><g id="g56" transform="translate(30.5913,16.0161)"><path id="path54" style="fill:#ffffff;fill-opacity:1;fill-rule:nonzero;stroke:none" d="m 0,0 c 0.802,-0.682 1.277,-1.668 1.277,-2.803 0,-2.052 -1.664,-3.716 -3.715,-3.716 l -1.147,0.007 H -9.727 V 5.849 h 6.203 0.63 c 1.996,0 3.614,-1.618 3.614,-3.613 0,-0.831 -0.281,-1.597 -0.753,-2.208 z"></path></g></g></g></g><g id="g62"><g id="g64"></g><g id="g76"><g style="opacity:0.60000598" id="g74" clip-path="url(#clipPath68)"><g id="g72" transform="translate(35.9634,15.3325)"><path id="path70" style="fill:#ffffff;fill-opacity:1;fill-rule:nonzero;stroke:none" d="m 0,0 c -0.165,-0.936 -0.98,-1.647 -1.963,-1.647 -1.102,0 -1.996,0.894 -1.996,1.996 0,1.102 0.894,1.995 1.996,1.995 0.929,0 1.708,-0.636 1.93,-1.495 l 4.004,1.393 c -0.802,2.514 -3.155,4.335 -5.934,4.335 -3.44,0 -6.228,-2.788 -6.228,-6.228 0,-3.44 2.788,-6.228 6.228,-6.228 2.821,0 5.203,1.876 5.968,4.449 C 2.889,-1.014 0.875,-0.306 0,0"></path></g></g></g></g><g id="g78"><g id="g80"></g><g id="g92"><g style="opacity:0.60000598" id="g90" clip-path="url(#clipPath84)"><g id="g88" transform="translate(43.6533,13.8564)"><path id="path86" style="fill:#ffffff;fill-opacity:1;fill-rule:nonzero;stroke:none" d="M 0,0 H -0.75 V 3.65 H 0 C 1.008,3.65 1.825,2.833 1.825,1.825 1.825,0.817 1.008,0 0,0 M 0.026,8.009 H -5.589 V -4.359 h 5.615 c 3.415,0 6.184,2.768 6.184,6.184 0,3.415 -2.769,6.184 -6.184,6.184"></path></g></g></g></g><g id="g94"><g id="g96"></g><g id="g108"><g style="opacity:0.00999451" id="g106" clip-path="url(#clipPath100)"><g id="g104" transform="translate(20.8706,9.5039)"><path id="path102" style="fill:#231f20;fill-opacity:1;fill-rule:nonzero;stroke:none" d="M 0,0 0.006,-0.018 H 5.033 L 0,12.344 Z"></path></g></g></g></g><g id="g110"><g id="g112"></g><g id="g124"><g style="opacity:0.00999451" id="g122" clip-path="url(#clipPath116)"><g id="g120" transform="translate(31.8745,13.1953)"><path id="path118" style="fill:#231f20;fill-opacity:1;fill-rule:nonzero;stroke:none" d="M 0,0 C 0,1.135 -0.475,2.122 -1.277,2.803 L -1.31,2.832 c 0.472,0.61 0.753,1.376 0.753,2.207 0,0.954 -0.372,1.818 -0.976,2.464 -1.553,-1.132 -2.563,-2.965 -2.563,-5.034 0,-2.197 1.138,-4.126 2.855,-5.235 C -0.481,-2.086 0,-1.101 0,0"></path></g></g></g></g><g id="g126"><g id="g128"></g><g id="g140"><g style="opacity:0.00999451" id="g138" clip-path="url(#clipPath132)"><g id="g136" transform="translate(39.9409,17.5571)"><path id="path134" style="fill:#231f20;fill-opacity:1;fill-rule:nonzero;stroke:none" d="M 0,0 C -0.354,1.108 -1.009,2.082 -1.87,2.824 V -0.651 Z"></path></g></g></g></g><g id="g142"><g id="g144"></g><g id="g156"><g style="opacity:0.00999451" id="g154" clip-path="url(#clipPath148)"><g id="g152" transform="translate(39.9751,13.8848)"><path id="path150" style="fill:#231f20;fill-opacity:1;fill-rule:nonzero;stroke:none" d="M 0,0 C -0.512,0.191 -1.211,0.443 -1.904,0.689 V -2.936 C -1.015,-2.168 -0.344,-1.155 0,0"></path></g></g></g></g><g transform="translate(71.1455,16.2051)" id="g158"><path id="path160" style="fill:#ffffff;fill-opacity:1;fill-rule:nonzero;stroke:none" d="M 0,0 -0.01,1.624 -0.783,0.32 H -1.312 L -2.087,1.567 V 0 h -1.094 v 3.563 h 0.988 l 1.161,-1.899 1.13,1.899 H 1.085 L 1.095,0 Z"></path></g><g transform="translate(76.292,17.1108)" id="g162"><path id="path164" style="fill:#ffffff;fill-opacity:1;fill-rule:nonzero;stroke:none" d="m 0,0 v -0.906 h -2.962 v 3.563 h 2.896 V 1.751 H -1.781 V 1.333 h 1.507 V 0.468 h -1.507 l 0,-0.468 z"></path></g><g transform="translate(80.4453,16.2051)" id="g166"><path id="path168" style="fill:#ffffff;fill-opacity:1;fill-rule:nonzero;stroke:none" d="M 0,0 -0.01,1.624 -0.783,0.32 H -1.312 L -2.087,1.567 V 0 h -1.094 v 3.563 h 0.988 l 1.16,-1.899 1.13,1.899 H 1.084 L 1.095,0 Z"></path></g><g transform="translate(84.9297,17.3247)" id="g170"><path id="path172" style="fill:#ffffff;fill-opacity:1;fill-rule:nonzero;stroke:none" d="m 0,0 c 0,0.187 -0.132,0.28 -0.396,0.28 h -0.723 v -0.56 h 0.723 C -0.132,-0.28 0,-0.187 0,0 m -1.119,1.604 v -0.53 h 0.559 c 0.262,0 0.392,0.088 0.392,0.265 0,0.176 -0.13,0.265 -0.392,0.265 z M 1.039,0.402 C 1.154,0.253 1.212,0.073 1.212,-0.137 1.212,-0.45 1.083,-0.691 0.825,-0.863 0.567,-1.034 0.193,-1.12 -0.295,-1.12 h -2.006 v 3.563 h 1.905 C 0.078,2.443 0.437,2.358 0.68,2.189 0.922,2.019 1.044,1.793 1.044,1.512 1.044,1.346 1.002,1.196 0.919,1.064 0.836,0.932 0.713,0.825 0.55,0.743 0.761,0.665 0.923,0.551 1.039,0.402"></path></g><g transform="translate(89.0781,18.7319)" id="g174"><path id="path176" style="fill:#ffffff;fill-opacity:1;fill-rule:nonzero;stroke:none" d="m 0,0 c -0.081,0.073 -0.203,0.11 -0.366,0.11 h -0.438 v -0.835 h 0.438 c 0.163,0 0.285,0.036 0.366,0.109 0.082,0.073 0.122,0.176 0.122,0.308 C 0.122,-0.175 0.082,-0.073 0,0 M -0.479,-1.631 H -0.804 V -2.527 H -2.005 V 1.036 H -0.29 C 0.039,1.036 0.326,0.982 0.57,0.873 0.814,0.765 1.003,0.608 1.135,0.405 1.268,0.201 1.334,-0.036 1.334,-0.308 1.334,-0.562 1.275,-0.785 1.16,-0.975 1.045,-1.165 0.879,-1.315 0.662,-1.428 L 1.41,-2.527 H 0.127 Z"></path></g><g transform="translate(93.6465,17.2051)" id="g178"><path id="path180" style="fill:#ffffff;fill-opacity:1;fill-rule:nonzero;stroke:none" d="m 0,0 c 0.121,0.073 0.217,0.176 0.288,0.311 0.071,0.133 0.107,0.291 0.107,0.47 0,0.18 -0.036,0.337 -0.107,0.471 C 0.217,1.386 0.121,1.49 0,1.562 c -0.12,0.074 -0.255,0.11 -0.404,0.11 -0.15,0 -0.284,-0.036 -0.406,-0.11 C -0.93,1.49 -1.025,1.386 -1.097,1.252 -1.168,1.118 -1.203,0.961 -1.203,0.781 c 0,-0.179 0.035,-0.337 0.106,-0.47 C -1.025,0.176 -0.93,0.073 -0.81,0 c 0.122,-0.073 0.256,-0.109 0.406,-0.109 0.149,0 0.284,0.036 0.404,0.109 m -1.437,-0.842 c -0.306,0.159 -0.545,0.381 -0.718,0.664 -0.173,0.283 -0.26,0.603 -0.26,0.959 0,0.357 0.087,0.677 0.26,0.96 0.173,0.283 0.412,0.505 0.718,0.664 0.305,0.159 0.649,0.24 1.033,0.24 0.383,0 0.727,-0.081 1.033,-0.24 C 0.935,2.246 1.174,2.024 1.347,1.741 1.52,1.458 1.606,1.138 1.606,0.781 1.606,0.425 1.52,0.105 1.347,-0.178 1.174,-0.461 0.935,-0.683 0.629,-0.842 c -0.306,-0.16 -0.65,-0.24 -1.033,-0.24 -0.384,0 -0.728,0.08 -1.033,0.24"></path></g><g transform="translate(65.2393,12.9941)" id="g182"><path id="path184" style="fill:#ffffff;fill-opacity:1;fill-rule:nonzero;stroke:none" d="M 0,0 -0.347,0.896 -0.692,0 Z m 0.331,-0.865 h -1.354 l -0.24,-0.621 h -1.221 l 1.557,3.563 H 0.254 L 1.812,-1.486 H 0.569 Z"></path></g><g transform="translate(68.2188,11.5254)" id="g186"><path id="path188" style="fill:#ffffff;fill-opacity:1;fill-rule:nonzero;stroke:none" d="m 0,0 c -0.279,0.066 -0.51,0.155 -0.689,0.268 l 0.386,0.875 C -0.133,1.045 0.058,0.966 0.268,0.906 0.478,0.847 0.68,0.817 0.873,0.817 1.04,0.817 1.158,0.833 1.229,0.865 1.301,0.897 1.337,0.946 1.337,1.011 1.337,1.085 1.29,1.142 1.196,1.179 1.104,1.216 0.95,1.257 0.736,1.301 0.461,1.358 0.232,1.421 0.049,1.486 -0.135,1.553 -0.294,1.661 -0.43,1.812 c -0.135,0.151 -0.204,0.356 -0.204,0.614 0,0.223 0.064,0.427 0.189,0.611 0.126,0.183 0.313,0.327 0.562,0.432 0.25,0.105 0.553,0.158 0.909,0.158 0.245,0 0.485,-0.026 0.72,-0.079 C 1.982,3.496 2.189,3.418 2.37,3.316 L 2.009,2.446 C 1.659,2.623 1.328,2.71 1.016,2.71 0.707,2.71 0.553,2.636 0.553,2.487 0.553,2.416 0.599,2.362 0.69,2.326 0.782,2.291 0.933,2.253 1.144,2.212 1.415,2.161 1.644,2.103 1.83,2.036 2.017,1.97 2.179,1.862 2.316,1.713 2.454,1.563 2.522,1.36 2.522,1.103 2.522,0.878 2.46,0.676 2.334,0.494 2.209,0.312 2.021,0.168 1.771,0.062 1.522,-0.046 1.22,-0.099 0.863,-0.099 0.568,-0.099 0.28,-0.065 0,0"></path></g><g transform="translate(72.0723,11.5254)" id="g190"><path id="path192" style="fill:#ffffff;fill-opacity:1;fill-rule:nonzero;stroke:none" d="m 0,0 c -0.28,0.066 -0.51,0.155 -0.689,0.268 l 0.386,0.875 C -0.133,1.045 0.057,0.966 0.268,0.906 0.478,0.847 0.68,0.817 0.873,0.817 c 0.166,0 0.285,0.016 0.356,0.048 0.072,0.032 0.107,0.081 0.107,0.146 0,0.074 -0.046,0.131 -0.14,0.168 C 1.103,1.216 0.949,1.257 0.735,1.301 0.461,1.358 0.231,1.421 0.049,1.486 -0.135,1.553 -0.294,1.661 -0.43,1.812 c -0.135,0.151 -0.204,0.356 -0.204,0.614 0,0.223 0.063,0.427 0.189,0.611 0.126,0.183 0.313,0.327 0.562,0.432 C 0.366,3.574 0.67,3.627 1.025,3.627 1.271,3.627 1.51,3.601 1.746,3.548 1.981,3.496 2.189,3.418 2.369,3.316 L 2.008,2.446 C 1.659,2.623 1.328,2.71 1.016,2.71 0.707,2.71 0.553,2.636 0.553,2.487 0.553,2.416 0.598,2.362 0.689,2.326 0.781,2.291 0.933,2.253 1.143,2.212 1.414,2.161 1.644,2.103 1.83,2.036 2.017,1.97 2.179,1.862 2.316,1.713 2.454,1.563 2.522,1.36 2.522,1.103 2.522,0.878 2.459,0.676 2.334,0.494 2.208,0.312 2.021,0.168 1.771,0.062 1.522,-0.046 1.22,-0.099 0.863,-0.099 0.567,-0.099 0.28,-0.065 0,0"></path></g><g transform="translate(77.7324,12.5078)" id="g194"><path id="path196" style="fill:#ffffff;fill-opacity:1;fill-rule:nonzero;stroke:none" d="m 0,0 c 0.12,0.073 0.217,0.177 0.288,0.311 0.071,0.133 0.107,0.291 0.107,0.47 0,0.18 -0.036,0.337 -0.107,0.471 C 0.217,1.387 0.12,1.49 0,1.563 -0.12,1.636 -0.255,1.672 -0.404,1.672 -0.554,1.672 -0.688,1.636 -0.81,1.563 -0.93,1.49 -1.025,1.387 -1.097,1.252 -1.168,1.118 -1.204,0.961 -1.204,0.781 c 0,-0.179 0.036,-0.337 0.107,-0.47 C -1.025,0.177 -0.93,0.073 -0.81,0 c 0.122,-0.073 0.256,-0.109 0.406,-0.109 0.149,0 0.284,0.036 0.404,0.109 m -1.437,-0.842 c -0.306,0.159 -0.545,0.381 -0.718,0.664 -0.173,0.283 -0.26,0.603 -0.26,0.959 0,0.357 0.087,0.677 0.26,0.96 0.173,0.283 0.412,0.505 0.718,0.664 0.305,0.16 0.649,0.24 1.033,0.24 0.383,0 0.727,-0.08 1.033,-0.24 C 0.935,2.246 1.174,2.024 1.347,1.741 1.52,1.458 1.606,1.138 1.606,0.781 1.606,0.425 1.52,0.105 1.347,-0.178 1.174,-0.461 0.935,-0.683 0.629,-0.842 c -0.306,-0.16 -0.65,-0.239 -1.033,-0.239 -0.384,0 -0.728,0.079 -1.033,0.239"></path></g><g transform="translate(81.1094,11.6631)" id="g198"><path id="path200" style="fill:#ffffff;fill-opacity:1;fill-rule:nonzero;stroke:none" d="m 0,0 c -0.302,0.158 -0.538,0.378 -0.71,0.662 -0.171,0.283 -0.257,0.605 -0.257,0.964 0,0.36 0.086,0.682 0.257,0.965 0.172,0.283 0.408,0.504 0.71,0.661 0.303,0.159 0.642,0.237 1.019,0.237 0.345,0 0.655,-0.061 0.926,-0.183 C 2.217,3.184 2.44,3.007 2.617,2.776 L 1.858,2.1 C 1.638,2.378 1.378,2.517 1.079,2.517 0.828,2.517 0.627,2.437 0.474,2.275 0.321,2.114 0.245,1.897 0.245,1.626 0.245,1.354 0.321,1.139 0.474,0.978 0.627,0.816 0.828,0.735 1.079,0.735 c 0.299,0 0.559,0.14 0.779,0.418 L 2.617,0.476 C 2.44,0.245 2.217,0.068 1.945,-0.054 1.674,-0.176 1.364,-0.236 1.019,-0.236 0.642,-0.236 0.303,-0.158 0,0"></path></g><path id="path202" style="fill:#ffffff;fill-opacity:1;fill-rule:nonzero;stroke:none" d="m 84.581,15.071 h 1.201 v -3.563 h -1.201 z"></path><g transform="translate(88.9688,12.9941)" id="g204"><path id="path206" style="fill:#ffffff;fill-opacity:1;fill-rule:nonzero;stroke:none" d="M 0,0 -0.346,0.896 -0.692,0 Z m 0.331,-0.865 h -1.354 l -0.239,-0.621 h -1.221 l 1.556,3.563 H 0.255 L 1.812,-1.486 H 0.57 Z"></path></g><g transform="translate(93.1885,12.4443)" id="g208"><path id="path210" style="fill:#ffffff;fill-opacity:1;fill-rule:nonzero;stroke:none" d="M 0,0 C 0.258,0 0.464,0.074 0.618,0.222 0.772,0.369 0.85,0.577 0.85,0.845 0.85,1.113 0.772,1.321 0.618,1.469 0.464,1.616 0.258,1.69 0,1.69 H -0.504 V 0 Z M -1.705,2.626 H 0.051 C 0.448,2.626 0.799,2.554 1.103,2.41 1.406,2.266 1.642,2.06 1.81,1.792 1.978,1.523 2.062,1.208 2.062,0.845 2.062,0.481 1.978,0.166 1.81,-0.102 1.642,-0.37 1.406,-0.576 1.103,-0.72 0.799,-0.864 0.448,-0.937 0.051,-0.937 h -1.756 z"></path></g><g transform="translate(98.4697,12.5078)" id="g212"><path id="path214" style="fill:#ffffff;fill-opacity:1;fill-rule:nonzero;stroke:none" d="m 0,0 c 0.12,0.073 0.216,0.177 0.287,0.311 0.071,0.133 0.108,0.291 0.108,0.47 0,0.18 -0.037,0.337 -0.108,0.471 C 0.216,1.387 0.12,1.49 0,1.563 -0.121,1.636 -0.256,1.672 -0.405,1.672 -0.555,1.672 -0.689,1.636 -0.81,1.563 -0.93,1.49 -1.026,1.387 -1.097,1.252 -1.169,1.118 -1.204,0.961 -1.204,0.781 c 0,-0.179 0.035,-0.337 0.107,-0.47 C -1.026,0.177 -0.93,0.073 -0.81,0 c 0.121,-0.073 0.255,-0.109 0.405,-0.109 0.149,0 0.284,0.036 0.405,0.109 m -1.438,-0.842 c -0.305,0.159 -0.545,0.381 -0.718,0.664 -0.173,0.283 -0.26,0.603 -0.26,0.959 0,0.357 0.087,0.677 0.26,0.96 0.173,0.283 0.413,0.505 0.718,0.664 0.305,0.16 0.65,0.24 1.033,0.24 0.384,0 0.728,-0.08 1.033,-0.24 C 0.934,2.246 1.173,2.024 1.346,1.741 1.52,1.458 1.605,1.138 1.605,0.781 1.605,0.425 1.52,0.105 1.346,-0.178 1.173,-0.461 0.934,-0.683 0.628,-0.842 c -0.305,-0.16 -0.649,-0.239 -1.033,-0.239 -0.383,0 -0.728,0.079 -1.033,0.239"></path></g></g></g></g></svg>