<svg width="70" height="70" viewBox="0 0 70 70" fill="none" xmlns="http://www.w3.org/2000/svg">
<circle cx="35" cy="35" r="35" fill="white"/>
<path d="M50.8926 29.8602L35.8196 15.256H35.723C35.5446 15.0914 35.3108 15 35.0681 15C34.8253 15 34.5915 15.0914 34.4131 15.256L19.3261 29.7776C19.2297 29.8628 19.1513 29.9664 19.0955 30.0824C19.0397 30.1983 19.0077 30.3242 19.0012 30.4527C18.9948 30.5812 19.014 30.7096 19.0579 30.8306C19.1018 30.9515 19.1694 31.0625 19.2567 31.1569C19.348 31.2563 19.4588 31.3358 19.5823 31.3904C19.7057 31.4449 19.8391 31.4733 19.974 31.4739C20.2136 31.4755 20.445 31.3868 20.622 31.2254L35.061 17.1726L49.6099 31.3079C49.7042 31.3936 49.8147 31.4596 49.935 31.502C50.0552 31.5443 50.1826 31.5621 50.3099 31.5545C50.4371 31.5467 50.5615 31.5136 50.6757 31.4572C50.79 31.4007 50.8918 31.3218 50.9751 31.2254C51.1389 31.0306 51.2217 30.7804 51.2064 30.5263C51.191 30.2722 51.0787 30.0337 50.8926 29.8602Z" fill="#18DCFF"/>
<path d="M21.5456 53.6206H48.6748C48.8577 53.6206 49.0331 53.6933 49.1625 53.8226C49.2918 53.952 49.3644 54.1274 49.3644 54.3103C49.3644 54.4931 49.2918 54.6685 49.1625 54.7979C49.0331 54.9273 48.8577 54.9999 48.6748 54.9999H21.5456C21.3627 54.9999 21.1873 54.9273 21.0579 54.7979C20.9286 54.6685 20.8559 54.4931 20.8559 54.3103C20.8559 54.1274 20.9286 53.952 21.0579 53.8226C21.1873 53.6933 21.3627 53.6206 21.5456 53.6206Z" fill="#18DCFF"/>
<path d="M29.2822 30.8804H22.3911C22.2326 30.8841 22.0819 30.9496 21.9711 31.063C21.8604 31.1763 21.7984 31.3286 21.7984 31.487V33.8576C21.8091 34.0283 21.8854 34.1884 22.0114 34.3041C22.1375 34.4198 22.3034 34.4822 22.4745 34.4783H22.902V49.0807H22.5245C22.3521 49.0803 22.1862 49.1459 22.0605 49.2639C21.9348 49.3819 21.859 49.5433 21.8485 49.7154V52.1562C21.8485 52.3133 21.9109 52.4641 22.022 52.5752C22.1332 52.6864 22.2839 52.7488 22.4411 52.7488H29.3367C29.4842 52.7352 29.6213 52.6668 29.7209 52.5571C29.8206 52.4474 29.8755 52.3044 29.8749 52.1562V49.6979C29.861 49.5283 29.7836 49.3703 29.6583 49.2552C29.533 49.1402 29.369 49.0766 29.1988 49.0771H28.7721V34.48H29.1997C29.372 34.4804 29.5381 34.4148 29.6637 34.2968C29.7893 34.1789 29.8652 34.0174 29.8757 33.8453V31.4748C29.8726 31.3183 29.8091 31.169 29.6985 31.0582C29.5878 30.9474 29.4388 30.8837 29.2822 30.8804ZM28.5237 50.4485V51.3177H23.1452V50.4485H28.5237ZM24.3173 34.48H27.4069V49.0807H24.3173V34.48ZM23.2005 33.1016V32.2324H28.5237V33.1016H23.2005Z" fill="#7D5FFF"/>
<path d="M47.6932 34.48C47.8665 34.4838 48.0345 34.4194 48.1609 34.3007C48.2873 34.182 48.3621 34.0185 48.3693 33.8452V31.4747C48.3693 31.3162 48.3073 31.164 48.1966 31.0506C48.0858 30.9372 47.935 30.8717 47.7766 30.868H40.8802C40.7217 30.8717 40.571 30.9372 40.4602 31.0506C40.3494 31.164 40.2875 31.3162 40.2876 31.4747V33.8452C40.2982 34.016 40.3745 34.1761 40.5005 34.2918C40.6265 34.4075 40.7925 34.4699 40.9636 34.466H41.3912V49.0841H41.0742C40.9018 49.0838 40.7358 49.1494 40.6102 49.2673C40.4845 49.3853 40.4087 49.5468 40.3982 49.7189V52.1597C40.3982 52.3168 40.4606 52.4676 40.5718 52.5787C40.6829 52.6899 40.8336 52.7523 40.9908 52.7523H47.8864C48.0435 52.7523 48.1943 52.6899 48.3054 52.5787C48.4166 52.4676 48.479 52.3168 48.479 52.1597V49.7013C48.4653 49.5342 48.39 49.3781 48.2676 49.2634C48.1453 49.1487 47.9847 49.0835 47.817 49.0806H47.378V34.48H47.6932ZM41.6941 51.3186V50.4494H47.0216V51.3186H41.6941ZM42.8073 49.0841V34.48H45.896V49.0841H42.8073ZM46.9443 32.2465V33.1156H41.6941V32.2465H46.9443Z" fill="#7D5FFF"/>
<path d="M34.7572 45.2641C33.9867 45.2394 33.2555 44.9182 32.716 44.3677C32.609 44.2484 32.539 44.1007 32.5144 43.9424C32.4898 43.7841 32.5117 43.6221 32.5774 43.476C32.6432 43.3299 32.7499 43.206 32.8847 43.1195C33.0195 43.033 33.1765 42.9874 33.3367 42.9884H33.5439C33.6946 42.9943 33.8413 43.0393 33.9694 43.119C34.0974 43.1987 34.2025 43.3105 34.2744 43.4432C34.3262 43.5341 34.3956 43.6139 34.4785 43.6778C34.5614 43.7417 34.6561 43.7885 34.7572 43.8154V42.1473C33.6159 41.8576 32.1786 41.5406 32.1786 39.8584C32.1786 38.4791 33.2954 37.7346 34.7572 37.638V37.1113C34.7572 37.0235 34.7921 36.9393 34.8542 36.8772C34.9162 36.8151 35.0004 36.7803 35.0882 36.7803C35.1773 36.7802 35.263 36.8146 35.3274 36.8763C35.3917 36.938 35.4297 37.0222 35.4333 37.1113V37.638C36.1505 37.6518 36.8357 37.9378 37.3499 38.4379C37.4472 38.5633 37.5077 38.7135 37.5246 38.8714C37.5415 39.0294 37.514 39.1889 37.4452 39.3322C37.3765 39.4754 37.2693 39.5965 37.1355 39.6822C37.0017 39.7679 36.8467 39.8146 36.6879 39.8172H36.536C36.3941 39.8111 36.2561 39.7685 36.1354 39.6936C36.0147 39.6187 35.9153 39.514 35.8468 39.3896C35.7526 39.2367 35.6054 39.1238 35.4333 39.0726V40.7276C36.5746 41.0446 38.04 41.3483 38.04 43.0033C38.04 44.1614 37.1163 45.1684 35.4333 45.2509V45.7777C35.4297 45.8667 35.3917 45.9509 35.3274 46.0126C35.263 46.0744 35.1773 46.1088 35.0882 46.1087C35.0004 46.1087 34.9162 46.0738 34.8542 46.0118C34.7921 45.9497 34.7572 45.8655 34.7572 45.7777V45.2641ZM34.7572 40.5336V39.0586C34.594 39.0849 34.4457 39.169 34.3394 39.2955C34.233 39.422 34.1757 39.5825 34.1778 39.7478C34.1739 39.926 34.2284 40.1007 34.3331 40.2451C34.4377 40.3895 34.5867 40.4957 34.7572 40.5476V40.5336ZM35.4333 42.3404V43.8848C35.6222 43.8674 35.7978 43.7799 35.9254 43.6395C36.0529 43.4991 36.1233 43.316 36.1225 43.1262C36.1225 42.7259 35.8468 42.5055 35.4333 42.3536V42.3404Z" fill="#18DCFF"/>
</svg>
