<svg width="30" height="37" viewBox="0 0 50 70" fill="none" xmlns="http://www.w3.org/2000/svg">
<path fill-rule="evenodd" clip-rule="evenodd" d="M40.791 43.2901C38.625 45.5901 37.754 48.5791 37.408 50.6901L37.195 51.9701L13.061 51.9571L12.849 50.6811C12.501 48.5891 11.635 45.6181 9.48702 43.3311L9.38702 43.2151C3.79702 38.4911 0.632019 31.6901 0.632019 24.4751C0.632019 10.9811 11.618 0.00305176 25.121 0.00305176C38.632 0.00305176 49.624 10.9811 49.624 24.4751C49.624 31.7191 46.406 38.5711 40.791 43.2911V43.2901ZM25.121 3.06005C13.305 3.06005 3.69202 12.6681 3.69202 24.4751C3.6909 27.6128 4.38066 30.7122 5.71229 33.5533C7.04393 36.3944 8.98478 38.9075 11.397 40.9141C11.541 41.0171 11.673 41.1671 11.776 41.3011C13.983 43.6811 15.075 46.5641 15.614 48.9021L34.64 48.9121C35.19 46.5091 36.32 43.5391 38.637 41.1171L38.761 41.0001C43.72 36.8641 46.564 30.8401 46.564 24.4751C46.564 12.6681 36.945 3.06105 25.121 3.06105V3.06005ZM14.418 57.4131H35.838C36.0433 57.4056 36.248 57.4396 36.4399 57.5131C36.6318 57.5865 36.8069 57.6979 36.9547 57.8405C37.1026 57.9831 37.2202 58.1541 37.3006 58.3432C37.3809 58.5323 37.4223 58.7356 37.4223 58.9411C37.4223 59.1465 37.3809 59.3498 37.3006 59.5389C37.2202 59.728 37.1026 59.899 36.9547 60.0416C36.8069 60.1842 36.6318 60.2956 36.4399 60.369C36.248 60.4425 36.0433 60.4765 35.838 60.4691H14.418C14.0126 60.4691 13.6237 60.3081 13.3369 60.0216C13.05 59.7351 12.8885 59.3465 12.888 58.9411C12.8885 58.5356 13.05 58.147 13.3369 57.8605C13.6237 57.574 14.0126 57.4131 14.418 57.4131V57.4131ZM18.04 66.3291H32.216C32.42 66.3238 32.623 66.3595 32.813 66.434C33.0031 66.5084 33.1762 66.6202 33.3224 66.7626C33.4685 66.9051 33.5847 67.0754 33.664 67.2634C33.7433 67.4515 33.7841 67.6535 33.7841 67.8576C33.7841 68.0616 33.7433 68.2637 33.664 68.4517C33.5847 68.6397 33.4685 68.81 33.3224 68.9525C33.1762 69.0949 33.0031 69.2067 32.813 69.2811C32.623 69.3556 32.42 69.3913 32.216 69.3861H18.04C17.6464 69.3686 17.2746 69.1999 17.0022 68.9152C16.7298 68.6305 16.5778 68.2516 16.5778 67.8576C16.5778 67.4635 16.7298 67.0846 17.0022 66.7999C17.2746 66.5152 17.6464 66.3465 18.04 66.3291V66.3291Z" fill="#18DCFF"/>
</svg>
