<svg width="30" height="37" viewBox="0 0 30 37" fill="none" xmlns="http://www.w3.org/2000/svg">
<g clip-path="url(#clip0)">
<path d="M28.481 0H9.14C9.02088 0.000172419 8.90312 0.0252614 8.79428 0.073655C8.68544 0.122049 8.58792 0.192676 8.508 0.281L0.218 9.491C0.077921 9.64746 0.000322575 9.85 0 10.06V35.85C0 36.32 0.381 36.7 0.85 36.7H28.481C28.951 36.7 29.331 36.32 29.331 35.85V0.85C29.331 0.624566 29.2414 0.408365 29.082 0.248959C28.9226 0.0895533 28.7064 0 28.481 0V0ZM9.21 2.042V9.21H2.759L9.21 2.042ZM27.631 35H1.7V10.908C1.72361 10.91 1.7473 10.911 1.771 10.911H10.061C10.2864 10.911 10.5026 10.8214 10.662 10.662C10.8214 10.5026 10.911 10.2864 10.911 10.061V1.771C10.911 1.7473 10.91 1.72361 10.908 1.7H27.632V35H27.631Z" fill="#18DCFF"/>
<path d="M8.21899 22.549H17.429C17.543 22.5529 17.6566 22.5338 17.7631 22.4929C17.8696 22.4519 17.9668 22.39 18.0488 22.3107C18.1308 22.2315 18.1961 22.1365 18.2406 22.0315C18.2852 21.9265 18.3081 21.8136 18.3081 21.6995C18.3081 21.5854 18.2852 21.4725 18.2406 21.3675C18.1961 21.2625 18.1308 21.1675 18.0488 21.0882C17.9668 21.0089 17.8696 20.947 17.7631 20.9061C17.6566 20.8651 17.543 20.8461 17.429 20.85H8.21899C8.10498 20.8461 7.99135 20.8651 7.88487 20.9061C7.77839 20.947 7.68124 21.0089 7.5992 21.0882C7.51716 21.1675 7.45192 21.2625 7.40736 21.3675C7.36281 21.4725 7.33984 21.5854 7.33984 21.6995C7.33984 21.8136 7.36281 21.9265 7.40736 22.0315C7.45192 22.1365 7.51716 22.2315 7.5992 22.3107C7.68124 22.39 7.77839 22.4519 7.88487 22.4929C7.99135 22.5338 8.10498 22.5529 8.21899 22.549V22.549ZM7.36899 15.7C7.36899 16.169 7.74999 16.55 8.21899 16.55H19.271C19.4964 16.55 19.7126 16.4604 19.872 16.301C20.0314 16.1416 20.121 15.9254 20.121 15.7C20.121 15.4745 20.0314 15.2583 19.872 15.0989C19.7126 14.9395 19.4964 14.85 19.271 14.85H8.21899C7.99356 14.85 7.77736 14.9395 7.61795 15.0989C7.45855 15.2583 7.36899 15.4745 7.36899 15.7V15.7ZM7.36899 26.7C7.36899 27.17 7.74999 27.55 8.21899 27.55H21.114C21.3394 27.55 21.5556 27.4604 21.715 27.301C21.8744 27.1416 21.964 26.9254 21.964 26.7C21.964 26.4745 21.8744 26.2583 21.715 26.0989C21.5556 25.9395 21.3394 25.85 21.114 25.85H8.21899C8.10737 25.85 7.99684 25.872 7.89371 25.9147C7.79059 25.9574 7.69688 26.02 7.61795 26.0989C7.53902 26.1779 7.47641 26.2716 7.4337 26.3747C7.39098 26.4778 7.36899 26.5884 7.36899 26.7V26.7Z" fill="#18DCFF"/>
</g>
<defs>
<clipPath id="clip0">
<rect width="29.331" height="36.7" fill="white"/>
</clipPath>
</defs>
</svg>
