<svg width="70" height="70" viewBox="0 0 70 70" fill="none" xmlns="http://www.w3.org/2000/svg">
<circle cx="35" cy="35" r="35" fill="white"/>
<path d="M34.8715 20.0797C34.9748 20.0798 35.0771 20.0592 35.1724 20.0192C35.2677 19.9793 35.3541 19.9208 35.4265 19.8471C35.4989 19.7734 35.5559 19.686 35.5942 19.5901C35.6326 19.4941 35.6513 19.3915 35.6495 19.2882V15.7782C35.6512 15.6755 35.6323 15.5736 35.5937 15.4784C35.5552 15.3833 35.498 15.2968 35.4254 15.2242C35.3528 15.1516 35.2664 15.0944 35.1712 15.0559C35.076 15.0174 34.9741 14.9984 34.8715 15.0001C34.7682 14.9983 34.6655 15.0171 34.5695 15.0554C34.4736 15.0937 34.3862 15.1507 34.3125 15.2232C34.2388 15.2956 34.1803 15.382 34.1403 15.4773C34.1005 15.5726 34.0799 15.6749 34.0799 15.7782V19.2862C34.0796 19.3903 34.0999 19.4935 34.1396 19.5897C34.1792 19.686 34.2375 19.7735 34.311 19.8472C34.3846 19.9209 34.4719 19.9794 34.5681 20.0193C34.6642 20.0592 34.7673 20.0797 34.8715 20.0797Z" fill="#7D5FFF"/>
<path d="M24.4226 19.4204C24.5718 19.5634 24.7702 19.6436 24.9768 19.6444C25.1915 19.6474 25.3991 19.5671 25.556 19.4204C25.7018 19.2702 25.7835 19.069 25.7835 18.8596C25.7835 18.6502 25.7018 18.449 25.556 18.2987L22.6677 15.4355C22.5204 15.3048 22.3303 15.2327 22.1333 15.2327C21.9364 15.2327 21.7463 15.3048 21.599 15.4355C21.4531 15.5858 21.3715 15.787 21.3715 15.9964C21.3715 16.2058 21.4531 16.407 21.599 16.5573L24.4226 19.4204Z" fill="#7D5FFF"/>
<path d="M44.7662 19.6444C44.981 19.6473 45.1885 19.5671 45.3454 19.4204L48.2096 16.5553C48.3339 16.404 48.3978 16.212 48.3888 16.0163C48.3798 15.8206 48.2987 15.6353 48.161 15.496C48.0233 15.3567 47.8388 15.2735 47.6433 15.2623C47.4477 15.2511 47.255 15.3128 47.1023 15.4355L44.2121 18.2987C44.1366 18.3713 44.0766 18.4584 44.0354 18.5548C43.9944 18.6511 43.9733 18.7548 43.9733 18.8595C43.9733 18.9643 43.9944 19.068 44.0354 19.1643C44.0766 19.2607 44.1366 19.3478 44.2121 19.4204C44.3612 19.5634 44.5596 19.6436 44.7662 19.6444Z" fill="#7D5FFF"/>
<path d="M54.1068 42.0335L52.7216 40.6482C52.3186 40.2461 51.7963 39.985 51.2328 39.9041C50.6693 39.8232 50.0947 39.9267 49.5948 40.1993L46.9546 37.5611L47.0734 37.4288C47.3272 37.1763 47.5285 36.8761 47.666 36.5455C47.8034 36.2149 47.8741 35.8604 47.8741 35.5025C47.8741 35.1444 47.8034 34.79 47.666 34.4594C47.5285 34.1288 47.3272 33.8287 47.0734 33.5762C46.7149 33.2064 46.2562 32.9497 45.7538 32.8377C45.822 32.5881 45.8574 32.3308 45.859 32.0722C45.8508 31.4502 45.6306 30.8497 45.2347 30.37C44.8389 29.8903 44.2912 29.56 43.6821 29.4339C43.7623 29.1867 43.8023 28.9282 43.8009 28.6684C43.7826 27.9612 43.4893 27.289 42.9832 26.7946C42.6207 26.4302 42.1638 26.1745 41.6636 26.0562C41.8044 25.6218 41.8334 25.159 41.748 24.7105C41.6626 24.262 41.4657 23.8422 41.1752 23.4899C40.8849 23.1376 40.5103 22.8642 40.0863 22.6948C39.6623 22.5255 39.2025 22.4657 38.7493 22.5211L33.4727 21.5181C33.0741 21.3895 32.6519 21.3512 32.2366 21.406C31.8214 21.4607 31.4236 21.6072 31.0719 21.8347L30.9532 21.967C30.5411 21.8111 30.0972 21.758 29.66 21.8124C29.2228 21.8668 28.8054 22.027 28.4441 22.2791C28.0827 22.5311 27.7883 22.8675 27.5864 23.2591C27.3843 23.6506 27.2808 24.0855 27.2849 24.5261C27.2864 24.7847 27.3219 25.0421 27.3901 25.2916C26.7812 25.4157 26.2336 25.7457 25.8396 26.2263C25.4455 26.7068 25.2291 27.3084 25.2268 27.9299C25.2219 28.189 25.2574 28.4472 25.332 28.6954C24.7231 28.8194 24.1755 29.1495 23.7815 29.63C23.3874 30.1106 23.171 30.7122 23.1687 31.3337C23.1615 31.8855 23.3277 32.4257 23.6436 32.8782C23.2444 33.0107 22.8826 33.2367 22.5885 33.5375C22.0825 34.051 21.7989 34.743 21.7989 35.4639C21.7989 36.1848 22.0825 36.8767 22.5885 37.3902L22.7246 37.5215L20.0815 40.1598C19.5934 39.9322 19.0473 39.8596 18.5166 39.9516C17.986 40.0436 17.4962 40.2958 17.1131 40.6743L15.7674 42.0991C15.2759 42.5935 15 43.2622 15 43.9593C15 44.6564 15.2759 45.3252 15.7674 45.8195L17.5118 47.5456L23.409 53.4428L24.2141 54.2344C24.4548 54.4794 24.7424 54.6734 25.0597 54.8049C25.3769 54.9364 25.7174 55.0027 26.0608 54.9999C26.7576 55.0004 27.4264 54.7252 27.921 54.2344L29.3034 52.8549C29.7988 52.3623 30.0787 51.6933 30.0815 50.9947C30.0816 50.5031 29.9395 50.0221 29.6722 49.6095L32.6271 46.6671C32.9572 46.3109 33.9467 46.3775 34.8039 46.4432C35.4932 46.5027 36.1863 46.5027 36.8755 46.4432L40.0698 49.6693C39.8585 50.0535 39.7494 50.4857 39.7532 50.9243C39.7527 51.621 40.0278 52.2898 40.5187 52.7845L41.904 54.1697C42.399 54.6598 43.0675 54.9348 43.7642 54.9348C44.4608 54.9348 45.1293 54.6598 45.6244 54.1697L54.0547 45.7394C54.5421 45.2457 54.8154 44.5798 54.8154 43.886C54.8154 43.1922 54.5421 42.5263 54.0547 42.0325L54.1068 42.0335ZM33.2227 23.0752L36.64 23.7219L34.5983 25.7666C34.1458 25.5373 33.7319 25.239 33.3714 24.8823C32.7966 24.4188 32.374 23.7937 32.1579 23.0877V23.0086C32.5149 22.9572 32.8785 22.9795 33.2265 23.0742L33.2227 23.0752ZM29.2648 23.7219C29.458 23.5334 29.7096 23.4163 29.9784 23.39C30.247 23.3637 30.5166 23.4297 30.7427 23.5771C31.0438 24.517 31.59 25.3598 32.3249 26.0185C32.9591 26.6524 33.7311 27.1311 34.5809 27.4173C34.723 27.6222 34.7971 27.8667 34.7923 28.1162C34.7937 28.2678 34.7651 28.4181 34.7081 28.5587C34.651 28.6992 34.5666 28.827 34.46 28.9346C34.3532 29.0423 34.2262 29.1279 34.0863 29.1862C33.9463 29.2446 33.7962 29.2746 33.6445 29.2746C33.492 29.2768 33.3407 29.2475 33.1999 29.1886C33.0593 29.1296 32.9322 29.0422 32.8269 28.9319L29.2648 25.3959C29.0539 25.1758 28.9356 24.883 28.9347 24.5782C28.9223 24.4231 28.9416 24.2672 28.9914 24.1198C29.0412 23.9725 29.1204 23.8368 29.2243 23.721L29.2648 23.7219ZM27.1806 27.1518C27.2843 27.0418 27.4089 26.9535 27.5472 26.8924C27.6855 26.8312 27.8345 26.7983 27.9857 26.7956C28.2949 26.7945 28.5926 26.9128 28.8169 27.1258L31.6656 29.9764C31.8822 30.1935 32.0038 30.4877 32.0038 30.7945C32.0038 31.1012 31.8822 31.3954 31.6656 31.6126C31.5602 31.723 31.4332 31.8104 31.2925 31.8693C31.1518 31.9282 31.0005 31.9576 30.848 31.9553C30.6957 31.9552 30.545 31.9249 30.4047 31.8661C30.2643 31.8073 30.1371 31.7211 30.0303 31.6126L27.867 29.4358L27.1912 28.7601C27.0826 28.6532 26.9964 28.5259 26.9377 28.3854C26.8788 28.245 26.8485 28.0942 26.8485 27.9419C26.8485 27.7896 26.8788 27.6388 26.9377 27.4984C26.9964 27.3579 27.0826 27.2306 27.1912 27.1238L27.1806 27.1518ZM25.109 30.5817C25.3291 30.3707 25.6218 30.2525 25.9267 30.2515C26.078 30.2499 26.2281 30.2783 26.3684 30.3349C26.5088 30.3916 26.6365 30.4754 26.7443 30.5817L28.9211 32.7585C29.0748 32.9216 29.178 33.1256 29.2181 33.3461C29.2581 33.5666 29.2334 33.7939 29.1468 34.0006C29.0603 34.2073 28.9157 34.3844 28.7305 34.5106C28.5453 34.6368 28.3275 34.7065 28.1035 34.7114C27.951 34.7136 27.7996 34.6843 27.6589 34.6254C27.5182 34.5664 27.3912 34.479 27.2859 34.3687L26.4943 33.5906L25.109 32.2189C25.0028 32.1111 24.9189 31.9833 24.8623 31.843C24.8056 31.7027 24.7772 31.5525 24.7789 31.4012C24.7798 31.0964 24.8981 30.8036 25.109 30.5836V30.5817ZM23.7498 34.7066C23.8576 34.6003 23.9853 34.5165 24.1257 34.4598C24.266 34.4032 24.4161 34.3748 24.5674 34.3764C24.8723 34.3774 25.165 34.4956 25.3851 34.7066L26.1767 35.4981C26.3727 35.7203 26.4762 36.0092 26.4659 36.3054C26.4555 36.6015 26.3319 36.8824 26.1207 37.0903C25.9095 37.2981 25.6267 37.4171 25.3304 37.4228C25.0341 37.4285 24.7469 37.3205 24.5279 37.1209L24.4313 37.0243L23.7556 36.3486C23.6441 36.243 23.5552 36.116 23.4942 35.975C23.4333 35.8342 23.4016 35.6823 23.4011 35.5288C23.4005 35.3753 23.4311 35.2232 23.4911 35.0819C23.551 34.9406 23.639 34.8128 23.7498 34.7066ZM28.1962 51.739L26.8756 53.1812C26.6778 53.3785 26.4098 53.4894 26.1303 53.4894C25.8509 53.4894 25.5829 53.3785 25.3851 53.1812L24.8445 52.6406L23.6436 51.4398L17.2975 45.1071L16.8756 44.6978C16.6821 44.5005 16.5736 44.2352 16.5736 43.9589C16.5736 43.6825 16.6821 43.4171 16.8756 43.2199L18.2744 41.8356C18.4401 41.6574 18.6636 41.5438 18.9052 41.5148C19.1468 41.4858 19.3909 41.5434 19.594 41.6773L19.6992 41.796C19.765 41.8603 19.8406 41.9137 19.9232 41.9543L27.9046 49.8701C27.9355 49.9581 27.9904 50.0356 28.0629 50.0941C28.1242 50.1581 28.1957 50.2116 28.2744 50.2524C28.4448 50.4402 28.5389 50.685 28.5379 50.9387C28.5425 51.0897 28.5142 51.2399 28.4551 51.3789C28.3959 51.5179 28.3073 51.6425 28.1952 51.7438L28.1962 51.739ZM38.5658 45.8862C38.7545 45.7678 38.9274 45.626 39.0804 45.4643L39.7793 44.7779C39.8531 44.7044 39.9117 44.6169 39.9517 44.5207C39.9916 44.4244 40.0122 44.3212 40.0122 44.2171C40.0122 44.1128 39.9916 44.0096 39.9517 43.9134C39.9117 43.8171 39.8531 43.7298 39.7793 43.6562C39.6313 43.5111 39.4323 43.4299 39.2252 43.4299C39.018 43.4299 38.819 43.5111 38.6711 43.6562L37.9722 44.3551C37.2964 45.0309 36.0984 44.9343 34.9381 44.8561C34.3506 44.7179 33.7403 44.7077 33.1485 44.8261C32.5567 44.9446 31.9973 45.1889 31.5082 45.5425L28.6055 48.4453L21.3654 41.2052L23.9207 38.6645C24.4462 38.9799 25.0615 39.1122 25.6704 39.0405C26.2791 38.9689 26.8469 38.6975 27.2849 38.2687C27.5412 38.0176 27.7435 37.7169 27.8796 37.3849C28.0157 37.0529 28.0827 36.6967 28.0765 36.338C28.4406 36.3415 28.8018 36.2721 29.1388 36.1339C29.4758 35.9958 29.7817 35.7916 30.0386 35.5335C30.2955 35.2753 30.4981 34.9684 30.6346 34.6308C30.7712 34.2931 30.8388 33.9316 30.8335 33.5675C31.1931 33.5704 31.5496 33.5019 31.8825 33.366C32.2154 33.2302 32.518 33.0296 32.7728 32.7759C33.281 32.2529 33.565 31.5522 33.5644 30.823C33.9275 30.8395 34.2901 30.7808 34.6295 30.6507C34.9688 30.5205 35.2776 30.3216 35.5364 30.0664C35.7953 29.8112 35.9986 29.5054 36.1337 29.1679C36.2688 28.8305 36.3327 28.4688 36.3214 28.1056C36.3231 27.6032 36.1861 27.1102 35.9256 26.6807L38.1816 24.4382C38.3397 24.2901 38.5365 24.1896 38.7493 24.1486H38.8284C39.0055 24.1268 39.1851 24.1452 39.354 24.2023C39.523 24.2595 39.6769 24.354 39.8044 24.4788C40.021 24.6959 40.1426 24.9901 40.1426 25.2969C40.1426 25.6036 40.021 25.8978 39.8044 26.115L39.118 26.7908L38.34 27.5824C38.2649 27.6538 38.2053 27.7398 38.1645 27.8351C38.1236 27.9303 38.1026 28.0328 38.1026 28.1365C38.1026 28.24 38.1236 28.3426 38.1645 28.4378C38.2053 28.5331 38.2649 28.619 38.34 28.6906C38.4879 28.8356 38.6869 28.9168 38.8941 28.9168C39.1012 28.9168 39.3002 28.8356 39.4482 28.6906L40.1345 28.0042L40.2397 27.899C40.4569 27.6824 40.7511 27.5606 41.0579 27.5606C41.3646 27.5606 41.6588 27.6824 41.876 27.899C42.0869 28.119 42.2051 28.4118 42.2061 28.7166C42.2077 28.8679 42.1794 29.0181 42.1227 29.1584C42.0661 29.2987 41.9822 29.4264 41.876 29.5343L41.1771 30.2206L40.399 31.0122C40.324 31.0836 40.2644 31.1697 40.2235 31.2649C40.1827 31.3601 40.1616 31.4626 40.1616 31.5663C40.1616 31.6699 40.1827 31.7724 40.2235 31.8677C40.2644 31.963 40.324 32.0489 40.399 32.1204C40.4714 32.1938 40.5576 32.2522 40.6528 32.292C40.7479 32.3317 40.85 32.3522 40.9531 32.3522C41.0562 32.3522 41.1584 32.3317 41.2534 32.292C41.3485 32.2522 41.4348 32.1938 41.5072 32.1204L42.2988 31.3288C42.4041 31.2185 42.5312 31.1311 42.6718 31.0722C42.8126 31.0132 42.9639 30.9839 43.1164 30.9861C43.343 30.9888 43.5638 31.0577 43.7515 31.1845C43.9392 31.3113 44.0857 31.4903 44.1726 31.6995C44.2597 31.9086 44.2834 32.1388 44.2411 32.3613C44.1987 32.5838 44.0919 32.789 43.9341 32.9516L42.6145 34.2712C42.5395 34.3426 42.4798 34.4286 42.439 34.5239C42.3981 34.6191 42.3771 34.7216 42.3771 34.8253C42.3771 34.9289 42.3981 35.0314 42.439 35.1267C42.4798 35.222 42.5395 35.3079 42.6145 35.3794C42.6866 35.4526 42.773 35.5102 42.8684 35.5487C42.9636 35.5872 43.0658 35.6059 43.1686 35.6034C43.2712 35.6051 43.3732 35.5862 43.4684 35.5477C43.5636 35.5091 43.6501 35.452 43.7227 35.3794L44.3984 34.7037C44.6176 34.4907 44.911 34.3716 45.2165 34.3716C45.5221 34.3716 45.8155 34.4907 46.0347 34.7037C46.2513 34.9208 46.3729 35.215 46.3729 35.5218C46.3729 35.8285 46.2513 36.1227 46.0347 36.3399L45.3483 37.0263L44.2662 38.1084C44.166 38.22 44.0996 38.3578 44.0746 38.5057C44.0497 38.6534 44.0673 38.8054 44.1253 38.9436C44.1834 39.082 44.2796 39.2009 44.4026 39.2866C44.5256 39.3723 44.6705 39.4214 44.8203 39.428C44.9238 39.4273 45.0261 39.4059 45.1213 39.3651C45.2164 39.3244 45.3025 39.265 45.3744 39.1906L45.9024 38.6625L48.4123 41.3008L41.1723 48.5408L38.5658 45.8862ZM52.9996 44.6312L44.5558 53.0615C44.3585 53.2551 44.0932 53.3635 43.8168 53.3635C43.5404 53.3635 43.2751 53.2551 43.0778 53.0615L41.6791 51.6627C41.4855 51.4654 41.3771 51.2002 41.3771 50.9238C41.3771 50.6474 41.4855 50.382 41.6791 50.1848L50.1229 41.7535C50.3201 41.56 50.5855 41.4515 50.8618 41.4515C51.1382 41.4515 51.4035 41.56 51.6008 41.7535L52.9996 43.1388C53.1937 43.3382 53.3023 43.6056 53.3023 43.884C53.3023 44.1623 53.1937 44.4297 52.9996 44.6293V44.6312Z" fill="#18DCFF"/>
</svg>
