<svg width="22" height="30" viewBox="0 0 22 30" fill="none" xmlns="http://www.w3.org/2000/svg">
<g clip-path="url(#clip0)">
<path d="M19.93 12.093V8.93C19.93 4.006 15.924 0 11 0C6.076 0 2.07 4.006 2.07 8.93V12.093C1.47015 12.2876 0.947066 12.6667 0.575355 13.1761C0.203645 13.6856 0.00228709 14.2994 0 14.93L0 26.93C0 28.584 1.346 29.93 3 29.93H19C20.654 29.93 22 28.584 22 26.93V14.93C21.9977 14.2994 21.7964 13.6856 21.4246 13.1761C21.0529 12.6667 20.5299 12.2876 19.93 12.093V12.093ZM11 1.86C14.898 1.86 18.07 5.032 18.07 8.93V11.93H3.93V8.93C3.93 5.032 7.102 1.86 11 1.86V1.86ZM20 26.93C20 27.481 19.552 27.93 19 27.93H3C2.448 27.93 2 27.481 2 26.93V14.93C2 14.379 2.448 13.93 3 13.93H19C19.552 13.93 20 14.379 20 14.93V26.93Z" fill="#18DCFF"/>
<path d="M13 17.9299C13.0003 17.5695 12.9033 17.2157 12.719 16.9059C12.5348 16.5961 12.2703 16.3419 11.9535 16.17C11.6367 15.9982 11.2793 15.9152 10.9192 15.9297C10.559 15.9443 10.2095 16.0559 9.90761 16.2528C9.6057 16.4496 9.36259 16.7244 9.204 17.0481C9.04542 17.3718 8.97724 17.7323 9.00669 18.0915C9.03613 18.4507 9.1621 18.7953 9.37128 19.0888C9.58045 19.3823 9.86506 19.6139 10.195 19.7589L9.5 23.9299H12.5L11.805 19.7589C12.1602 19.6029 12.4623 19.3469 12.6745 19.0221C12.8867 18.6974 12.9998 18.3179 13 17.9299Z" fill="#18DCFF"/>
</g>
<defs>
<clipPath id="clip0">
<rect width="22" height="29.93" fill="white"/>
</clipPath>
</defs>
</svg>
