<svg width="1129" height="360" viewBox="0 0 1129 360" fill="none" xmlns="http://www.w3.org/2000/svg">
<path d="M86.4 0H360V273.6C360 321.318 321.318 360 273.6 360H0V86.4C0 38.682 38.682 0 86.4 0Z" fill="url(#paint0_linear)"/>
<path d="M177.69 76.8827L144.97 109.603C142.146 112.427 140.498 116.194 140.498 120.195C140.498 124.197 142.146 127.963 144.97 130.788L177.69 163.743C178.396 164.449 179.338 164.685 180.28 164.685C181.221 164.685 182.163 164.214 182.869 163.743L215.589 131.023C221.474 125.139 221.474 115.487 215.589 109.603L182.869 76.8827C181.457 75.7058 179.103 75.7058 177.69 76.8827ZM164.979 180.221C164.979 179.279 164.508 178.338 164.037 177.631L131.082 144.912C125.197 139.027 115.546 139.027 109.661 144.912L76.9416 177.631C76.2354 178.338 76 179.279 76 180.221C76 181.162 76.4708 182.104 76.9416 182.81L109.661 215.53C112.486 218.355 116.252 220.002 120.254 220.002C124.256 220.002 128.022 218.355 130.847 215.53L163.802 182.81C164.508 182.104 164.979 181.162 164.979 180.221ZM250.898 144.912C245.013 139.027 235.362 139.027 229.477 144.912L196.757 177.631C196.051 178.338 195.816 179.279 195.816 180.221C195.816 181.162 196.286 182.104 196.757 182.81L229.477 215.53C232.302 218.355 236.068 220.002 240.07 220.002C244.071 220.002 247.838 218.355 250.662 215.53L283.382 182.81C284.795 181.398 284.795 179.279 283.382 177.867L250.898 144.912ZM182.869 196.698C181.457 195.286 179.338 195.286 177.926 196.698L144.97 229.418C139.086 235.303 139.086 244.954 144.97 250.839L177.69 283.559C178.396 284.265 179.338 284.5 180.28 284.5C181.221 284.5 182.163 284.265 182.869 283.559L215.589 250.839C221.474 244.954 221.474 235.303 215.589 229.418L182.869 196.698Z" fill="white"/>
<path d="M460.851 136.449V114.753H430.925V102.185H463.095L466.836 78.2444H401V171.761H467.584V147.821H430.925V136.449H460.851ZM502.597 171.761L506.038 156.948H530.727L534.168 171.761H565.739L541.5 78.2444H495.265L471.025 171.761H502.597ZM517.56 106.973H519.205L525.191 133.158H511.425L517.56 106.973ZM567.685 170.116C578.757 172.709 590.777 174.006 603.745 174.006C609.131 174.006 613.446 173.881 616.688 173.632C619.929 173.382 623.695 172.659 627.984 171.462C632.274 170.265 635.59 168.544 637.935 166.3C640.279 164.056 642.299 160.764 643.994 156.425C645.69 152.085 646.538 146.774 646.538 140.489C646.538 131.711 644.044 124.853 639.057 119.916C634.069 114.978 625.042 111.861 611.974 110.564L601.201 109.516V102.185C605.091 101.686 609.83 101.437 615.416 101.437C621.002 101.437 628.433 102.185 637.71 103.681L641.451 79.7407C630.777 77.2469 618.807 76 605.54 76C592.273 76 582.872 78.394 577.336 83.1821C571.799 87.9702 569.031 96.7483 569.031 109.516C569.031 118.793 571.301 125.801 575.839 130.539C580.378 135.277 588.732 138.195 600.902 139.292L614.368 140.489V147.971C609.879 148.569 603.969 148.868 596.637 148.868C589.306 148.868 581.051 147.721 571.874 145.427L567.685 170.116ZM683.346 78.2444H650.279L677.212 146.325V171.761H707.137V146.325L734.07 78.2444H701.002L692.623 111.162H691.576L683.346 78.2444Z" fill="#18DCFF"/>
<path d="M446.474 256.929V240.445H423.737V230.895H448.18L451.022 212.705H401V283.759H451.59V265.569H423.737V256.929H446.474ZM482.172 283.759L483.536 249.312H484.218L492.972 283.759H510.366L519.006 249.312H519.802L521.166 283.759H544.927L540.607 212.705H510.934L502.067 248.857H501.271L492.404 212.705H462.732L458.411 283.759H482.172ZM590.969 266.593C594.683 266.593 597.942 265.986 600.747 264.774C603.551 263.561 605.749 262.083 607.34 260.34C611.585 255.717 613.707 248.592 613.707 238.967C613.707 221.459 605.559 212.705 589.264 212.705H553.453V283.759H576.19V266.593H590.969ZM576.19 230.895H581.42C584.148 230.895 586.138 231.179 587.388 231.748C588.639 232.316 589.264 233.624 589.264 235.67V243.628C589.264 245.674 588.639 246.982 587.388 247.55C586.138 248.119 584.148 248.403 581.42 248.403H576.19V230.895ZM682.487 283.759L670.209 260.112C677.257 256.474 680.782 248.971 680.782 237.603C680.782 221.004 672.634 212.705 656.339 212.705H620.528V283.759H643.265V262.614H648.154L657.476 283.759H682.487ZM643.265 230.895H648.495C651.223 230.895 653.213 231.179 654.463 231.748C655.714 232.316 656.339 233.624 656.339 235.67V240.331C656.339 242.377 655.714 243.685 654.463 244.253C653.213 244.822 651.223 245.106 648.495 245.106H643.265V230.895ZM735.919 256.929V240.445H713.182V230.895H737.625L740.467 212.705H690.445V283.759H741.035V265.569H713.182V256.929H735.919ZM747.856 282.509C756.269 284.479 765.402 285.464 775.255 285.464C779.347 285.464 782.625 285.37 785.089 285.18C787.552 284.991 790.413 284.441 793.672 283.532C796.931 282.622 799.451 281.315 801.232 279.61C803.013 277.904 804.548 275.403 805.836 272.106C807.125 268.809 807.769 264.774 807.769 259.999C807.769 253.329 805.874 248.119 802.085 244.367C798.295 240.615 791.436 238.247 781.507 237.261L773.322 236.466V230.895C776.278 230.516 779.878 230.327 784.122 230.327C788.366 230.327 794.013 230.895 801.061 232.032L803.904 213.842C795.794 211.947 786.699 211 776.619 211C766.539 211 759.395 212.819 755.189 216.457C750.983 220.095 748.88 226.764 748.88 236.466C748.88 243.514 750.604 248.839 754.052 252.439C757.501 256.039 763.848 258.256 773.095 259.089L783.326 259.999V265.683C779.916 266.138 775.425 266.365 769.855 266.365C764.284 266.365 758.012 265.494 751.04 263.75L747.856 282.509ZM866.886 230.895V212.705H811.18V230.895H827.664V283.759H850.401V230.895H866.886ZM873.138 283.759H895.876V212.705H873.138V283.759ZM928.162 283.759L929.527 249.312H930.209L938.963 283.759H956.357L964.997 249.312H965.793L967.157 283.759H990.917L986.597 212.705H956.925L948.058 248.857H947.262L938.394 212.705H908.722L904.402 283.759H928.162ZM996.033 248.289C996.033 254.731 996.545 260.15 997.568 264.546C998.591 268.942 1000.35 272.769 1002.85 276.028C1005.36 279.287 1008.8 281.675 1013.2 283.191C1017.6 284.707 1023.05 285.464 1029.57 285.464C1036.09 285.464 1041.55 284.707 1045.94 283.191C1050.34 281.675 1053.79 279.287 1056.29 276.028C1058.79 272.769 1060.55 268.942 1061.57 264.546C1062.6 260.15 1063.11 254.731 1063.11 248.289C1063.11 235.329 1060.68 225.874 1055.83 219.924C1050.98 213.975 1042.23 211 1029.57 211C1016.91 211 1008.16 213.975 1003.31 219.924C998.458 225.874 996.033 235.329 996.033 248.289ZM1020.48 236.466C1020.48 233.889 1021.18 232.24 1022.58 231.52C1023.98 230.8 1026.2 230.44 1029.23 230.44H1038.78V259.999C1038.78 262.576 1038.08 264.224 1036.68 264.944C1035.27 265.664 1033.02 266.024 1029.91 266.024H1020.48V236.466ZM1068.22 282.509C1076.64 284.479 1085.77 285.464 1095.62 285.464C1099.71 285.464 1102.99 285.37 1105.46 285.18C1107.92 284.991 1110.78 284.441 1114.04 283.532C1117.3 282.622 1119.82 281.315 1121.6 279.61C1123.38 277.904 1124.92 275.403 1126.2 272.106C1127.49 268.809 1128.14 264.774 1128.14 259.999C1128.14 253.329 1126.24 248.119 1122.45 244.367C1118.66 240.615 1111.8 238.247 1101.87 237.261L1093.69 236.466V230.895C1096.65 230.516 1100.25 230.327 1104.49 230.327C1108.73 230.327 1114.38 230.895 1121.43 232.032L1124.27 213.842C1116.16 211.947 1107.07 211 1096.99 211C1086.91 211 1079.76 212.819 1075.56 216.457C1071.35 220.095 1069.25 226.764 1069.25 236.466C1069.25 243.514 1070.97 248.839 1074.42 252.439C1077.87 256.039 1084.22 258.256 1093.46 259.089L1103.69 259.999V265.683C1100.28 266.138 1095.79 266.365 1090.22 266.365C1084.65 266.365 1078.38 265.494 1071.41 263.75L1068.22 282.509Z" fill="#7D5FFF"/>
<defs>
<linearGradient id="paint0_linear" x1="0" y1="360" x2="360" y2="3.05176e-05" gradientUnits="userSpaceOnUse">
<stop offset="0.05" stop-color="#7D5FFF"/>
<stop offset="0.95" stop-color="#18DCFF"/>
</linearGradient>
</defs>
</svg>
