<svg width="70" height="70" viewBox="0 0 70 70" fill="none" xmlns="http://www.w3.org/2000/svg">
<circle cx="35" cy="35" r="35" fill="white"/>
<path d="M40.3758 27.3253V36.2779C40.4034 36.6306 40.2923 36.9802 40.0662 37.2522C39.8401 37.5244 39.5166 37.6976 39.1648 37.735C38.81 37.7015 38.4825 37.5301 38.2529 37.2576C38.0234 36.985 37.9101 36.6332 37.9374 36.2779V27.3253C37.9101 26.97 38.0234 26.6181 38.2529 26.3456C38.4825 26.073 38.81 25.9015 39.1648 25.8682C39.5166 25.9055 39.8401 26.0787 40.0662 26.3508C40.2923 26.6229 40.4034 26.9725 40.3758 27.3253Z" fill="#7D5FFF"/>
<path d="M40.3758 27.3253V36.2779C40.4034 36.6306 40.2923 36.9802 40.0662 37.2522C39.8401 37.5244 39.5166 37.6976 39.1648 37.735C38.81 37.7015 38.4825 37.5301 38.2529 37.2576C38.0234 36.985 37.9101 36.6332 37.9374 36.2779V27.3253C37.9101 26.97 38.0234 26.6181 38.2529 26.3456C38.4825 26.073 38.81 25.9015 39.1648 25.8682C39.5166 25.9055 39.8401 26.0787 40.0662 26.3508C40.2923 26.6229 40.4034 26.9725 40.3758 27.3253Z" fill="#7D5FFF"/>
<path d="M44.6967 43.6255L38.4286 37.3574C38.155 37.128 37.9828 36.8003 37.949 36.4449C37.9152 36.0896 38.0226 35.7351 38.2481 35.4584C38.5228 35.2311 38.8759 35.1208 39.2312 35.1515C39.5865 35.1822 39.9154 35.3514 40.1471 35.6225L46.4316 41.907C46.6991 42.141 46.8655 42.4694 46.8961 42.8235C46.9267 43.1775 46.819 43.5296 46.5957 43.806C46.319 44.0315 45.9645 44.1389 45.6092 44.1051C45.2538 44.0713 44.9261 43.899 44.6967 43.6255Z" fill="#7D5FFF"/>
<path d="M44.6967 43.6255L38.4286 37.3574C38.155 37.128 37.9828 36.8003 37.949 36.4449C37.9152 36.0896 38.0226 35.7351 38.2481 35.4584C38.5228 35.2311 38.8759 35.1208 39.2312 35.1515C39.5865 35.1822 39.9154 35.3514 40.1471 35.6225L46.4316 41.907C46.6991 42.141 46.8655 42.4694 46.8961 42.8235C46.9267 43.1775 46.819 43.5296 46.5957 43.806C46.319 44.0315 45.9645 44.1389 45.6092 44.1051C45.2538 44.0713 44.9261 43.899 44.6967 43.6255Z" fill="#7D5FFF"/>
<path d="M11.5216 33.5605H17.234C17.5998 33.5329 17.9619 33.6492 18.2432 33.8846C18.5246 34.1199 18.7029 34.4559 18.7404 34.8207C18.7069 35.1883 18.5304 35.5282 18.2489 35.7669C17.9674 36.0057 17.6033 36.1244 17.2351 36.0973H11.5216C11.1508 36.1289 10.7825 36.0123 10.4973 35.773C10.2122 35.5339 10.0334 35.1914 10 34.8207C10.0374 34.453 10.2179 34.1147 10.5026 33.8789C10.7873 33.6431 11.1533 33.5288 11.5216 33.5605Z" fill="#7D5FFF"/>
<path d="M14.3188 27.7495H17.234C17.6006 27.7179 17.9647 27.8328 18.2468 28.069C18.5288 28.305 18.7059 28.6434 18.7393 29.0097C18.707 29.3768 18.5304 29.7162 18.2482 29.9533C17.966 30.1904 17.6013 30.3058 17.234 30.2743H14.3188C13.95 30.3057 13.5836 30.1906 13.2991 29.9539C13.0145 29.7173 12.8346 29.378 12.7982 29.0097C12.8356 28.6422 13.016 28.304 13.3005 28.0683C13.5849 27.8326 13.9507 27.718 14.3188 27.7495Z" fill="#7D5FFF"/>
<path d="M14.3188 39.6316H17.2341C17.6048 39.6047 17.9712 39.7256 18.2532 39.9679C18.5352 40.2101 18.7099 40.554 18.7393 40.9246C18.7272 41.1098 18.6786 41.2908 18.5963 41.4572C18.514 41.6236 18.3996 41.772 18.2597 41.894C18.1198 42.016 17.9572 42.1092 17.7812 42.168C17.6051 42.227 17.4192 42.2505 17.2341 42.2373H14.3188C13.943 42.2646 13.5717 42.1419 13.2864 41.8958C13.0011 41.6496 12.8251 41.3004 12.7971 40.9246C12.83 40.5523 13.0081 40.2081 13.2929 39.9661C13.5776 39.7241 13.9461 39.6039 14.3188 39.6316Z" fill="#7D5FFF"/>
<path d="M39.9349 15C35.9779 14.9968 32.1088 16.1674 28.8174 18.3638C25.5259 20.5602 22.9599 23.6836 21.4441 27.3388C19.9283 30.994 19.5308 35.0166 20.302 38.8978C21.0732 42.7789 22.9784 46.3441 25.7764 49.1421C28.5744 51.9402 32.1396 53.8454 36.0208 54.6165C39.9019 55.3877 43.9246 54.9903 47.5798 53.4744C51.2349 51.9587 54.3584 49.3927 56.5547 46.1011C58.7512 42.8097 59.9218 38.9406 59.9185 34.9836C59.9141 29.6849 57.8074 24.6046 54.0607 20.8579C50.314 17.1112 45.2336 15.0044 39.9349 15ZM39.9349 52.6437C36.4551 52.6567 33.0496 51.6374 30.149 49.715C27.2485 47.7924 24.9831 45.0529 23.6394 41.843C22.2958 38.633 21.9341 35.0967 22.6003 31.6812C23.2665 28.2658 24.9305 25.1245 27.3819 22.6547C29.8334 20.1849 32.9621 18.4975 36.3725 17.8059C39.783 17.1143 43.3219 17.4495 46.5418 18.7691C49.7617 20.0888 52.518 22.3337 54.4621 25.2198C56.4062 28.1059 57.4507 31.5037 57.4638 34.9836C57.4724 37.2942 57.0259 39.5837 56.1496 41.7218C55.2734 43.8597 53.9847 45.8041 52.3569 47.444C50.7292 49.0839 48.7944 50.3872 46.663 51.2794C44.5317 52.1715 42.2455 52.6351 39.9349 52.6437Z" fill="#18DCFF"/>
</svg>
