<svg width="40" height="31" viewBox="0 0 40 31" fill="none" xmlns="http://www.w3.org/2000/svg">
<path fill-rule="evenodd" clip-rule="evenodd" d="M39.987 27.719C39.987 29.277 38.792 30.545 37.323 30.545H3.389C1.919 30.545 0.723999 29.277 0.723999 27.719V27.528L3.677 22.307V4.29795C3.677 2.32795 5.221 0.725952 7.12 0.725952H33.664C35.563 0.725952 37.107 2.32795 37.107 4.29795V21.96L39.987 27.544V27.72V27.719ZM35.643 6.14495V4.29795C35.643 3.12795 34.755 2.17795 33.664 2.17795H7.12C6.03 2.17795 5.141 3.12795 5.141 4.29795V21.665H35.643V6.14495ZM36.083 23.163H4.873L3.05 26.385H37.746L36.085 23.163H36.083ZM38.495 27.837H2.23V27.834L2.197 27.891C2.272 28.568 2.777 29.093 3.389 29.093H37.323C37.937 29.093 38.446 28.561 38.515 27.878L38.495 27.838V27.837Z" fill="#18DCFF"/>
</svg>
