<svg width="70" height="70" viewBox="0 0 70 70" fill="none" xmlns="http://www.w3.org/2000/svg">
<circle cx="35" cy="35" r="35" fill="white"/>
<path d="M44.7174 35.9846C44.7159 36.1494 44.747 36.3128 44.809 36.4655C44.871 36.6183 44.9626 36.7571 45.0787 36.8742C45.1947 36.9913 45.3327 37.0842 45.4848 37.1476C45.6369 37.211 45.8001 37.2437 45.9649 37.2437C46.2184 37.2488 46.4677 37.1781 46.6807 37.0407C46.8938 36.9033 47.061 36.7055 47.1609 36.4725C47.2609 36.2395 47.289 35.9819 47.2416 35.7328C47.1942 35.4838 47.0737 35.2545 46.8952 35.0744C46.7168 34.8943 46.4886 34.7715 46.24 34.7219C45.9914 34.6723 45.7336 34.698 45.4996 34.7958C45.2657 34.8935 45.0663 35.0589 44.9269 35.2707C44.7875 35.4825 44.7147 35.731 44.7174 35.9846Z" fill="#18DCFF"/>
<path d="M28.1891 29.9263C28.2317 30.2212 28.3863 30.4883 28.6208 30.6723C28.8552 30.8561 29.1516 30.9425 29.4482 30.9136H39.47C39.7665 30.9425 40.0629 30.8561 40.2973 30.6723C40.5319 30.4883 40.6865 30.2212 40.7291 29.9263C40.6865 29.6313 40.5319 29.3642 40.2973 29.1803C40.0629 28.9964 39.7665 28.91 39.47 28.939H29.4482C29.1516 28.91 28.8552 28.9964 28.6208 29.1803C28.3863 29.3642 28.2317 29.6313 28.1891 29.9263Z" fill="#18DCFF"/>
<path d="M34.1993 26.7353C33.0382 26.7382 31.9022 26.3964 30.9354 25.7534C29.9686 25.1103 29.2143 24.1948 28.7681 23.1228C28.3217 22.0508 28.2036 20.8705 28.4285 19.7314C28.6533 18.5922 29.2111 17.5453 30.0313 16.7233C30.8514 15.9013 31.897 15.3411 33.0356 15.1137C34.1743 14.8862 35.3548 15.0017 36.4279 15.4455C37.5008 15.8894 38.418 16.6416 39.0633 17.6069C39.7085 18.5723 40.0529 19.7074 40.0527 20.8686C40.0527 22.4223 39.4365 23.9126 38.3392 25.0126C37.2419 26.1126 35.7531 26.7325 34.1993 26.7362V26.7353ZM34.1993 15.8875C33.2103 15.8847 32.2428 16.1755 31.4193 16.7232C30.5958 17.2709 29.9535 18.0507 29.5736 18.9638C29.1938 19.877 29.0937 20.8823 29.2859 21.8524C29.478 22.8226 29.9539 23.7138 30.6531 24.4132C31.3524 25.1125 32.2436 25.5886 33.2136 25.7809C34.1837 25.9733 35.1891 25.8733 36.1023 25.4937C37.0155 25.114 37.7955 24.4718 38.3433 23.6484C38.8911 22.825 39.1822 21.8575 39.1795 20.8686C39.1757 19.5489 38.6498 18.2843 37.7167 17.3512C36.7835 16.418 35.519 15.8921 34.1993 15.8884V15.8875Z" fill="#7D5FFF" stroke="#7D5FFF"/>
<path d="M33.9133 23.9169C33.2984 23.8966 32.7144 23.6416 32.2817 23.2041C32.2159 23.1081 32.1765 22.9964 32.1679 22.8803C32.1591 22.7642 32.1814 22.6479 32.2323 22.5432C32.2832 22.4385 32.361 22.3492 32.4575 22.2844C32.5542 22.2195 32.6664 22.1814 32.7825 22.174H32.9402C33.061 22.1753 33.1791 22.2091 33.2823 22.2718C33.3854 22.3345 33.4698 22.4239 33.5266 22.5304C33.6142 22.6746 33.7519 22.7815 33.9133 22.8307V21.4282C32.9973 21.1849 31.8638 20.9274 31.8638 19.5961C31.8638 18.5269 32.7549 17.8933 33.9133 17.822V17.405C33.9133 17.3329 33.942 17.2638 33.9929 17.2128C34.0439 17.1619 34.113 17.1332 34.1851 17.1332C34.2213 17.1312 34.2576 17.1368 34.2915 17.1497C34.3254 17.1626 34.3562 17.1826 34.3819 17.2082C34.4076 17.2339 34.4274 17.2647 34.4403 17.2986C34.4534 17.3325 34.459 17.3688 34.4568 17.405V17.8773C35.0265 17.8957 35.5701 18.1194 35.9877 18.5073C36.0771 18.6072 36.1354 18.7311 36.1553 18.8638C36.1752 18.9964 36.1557 19.132 36.0994 19.2537C36.0432 19.3755 35.9525 19.4781 35.8386 19.5489C35.7246 19.6198 35.5925 19.6557 35.4584 19.6523H35.3443C35.2296 19.6487 35.1176 19.6152 35.0198 19.555C34.922 19.4948 34.8415 19.4101 34.7865 19.3092C34.7037 19.1937 34.5897 19.1044 34.4577 19.0517V20.3108C35.3737 20.5683 36.533 20.8258 36.533 22.1428C36.533 23.0588 35.8032 23.8741 34.4577 23.932V24.3473C34.4599 24.3835 34.4542 24.4198 34.4412 24.4537C34.4283 24.4876 34.4084 24.5184 34.3828 24.5441C34.3571 24.5698 34.3263 24.5897 34.2923 24.6026C34.2585 24.6156 34.2222 24.6212 34.1859 24.619C34.1139 24.619 34.0448 24.5904 33.9938 24.5395C33.9429 24.4885 33.9142 24.4193 33.9142 24.3473L33.9133 23.9169ZM33.9133 20.1388V18.951C33.7704 18.9619 33.6372 19.0275 33.5414 19.134C33.4454 19.2405 33.3942 19.3798 33.3982 19.5231C33.3974 19.8243 33.6121 19.9953 33.9133 20.1388ZM34.4568 21.5699V22.7862C34.6099 22.7717 34.752 22.7005 34.8552 22.5865C34.9585 22.4726 35.0154 22.3242 35.0146 22.1704C35.0146 21.8844 34.7856 21.7124 34.4568 21.5841V21.5699Z" fill="#18DCFF"/>
<path d="M52.2737 34.7068H51.7016C51.1077 32.5687 50.0074 30.6052 48.4938 28.9826V23.2583C48.4529 22.96 48.3065 22.6862 48.0811 22.4866C47.8556 22.287 47.5661 22.1748 47.265 22.1703C46.0697 22.163 44.8854 22.4004 43.7853 22.8679C42.6852 23.3355 41.6924 24.0233 40.8681 24.889C40.5197 24.8095 40.1658 24.7568 39.8095 24.7313C39.336 25.4281 38.7216 26.0179 38.0059 26.4626H38.7928C39.6388 26.4565 40.4817 26.5672 41.2975 26.7914C41.5564 26.8535 41.8275 26.8423 42.0803 26.7589C42.3331 26.6755 42.5576 26.5231 42.7286 26.3192C43.6967 25.0698 45.0753 24.2031 46.6208 23.8723V28.9514C46.6296 29.3099 46.7727 29.6521 47.0218 29.9102C48.5229 31.3926 49.6084 33.2433 50.1699 35.2771C50.1699 35.4348 50.3134 35.8785 50.3561 36.1066C50.4316 36.4064 50.608 36.671 50.8557 36.8559C51.1033 37.0409 51.4071 37.135 51.7159 37.1225H53.3332C53.6901 37.1225 54.0323 37.2642 54.2846 37.5165C54.5369 37.7688 54.6787 38.1111 54.6787 38.468V41.2445C54.6749 41.5989 54.5316 41.9374 54.2796 42.1867C54.0277 42.436 53.6876 42.5758 53.3332 42.5758H50.7571C50.5073 42.5969 50.2673 42.6833 50.0613 42.8264C49.8553 42.9696 49.6906 43.1642 49.5836 43.3911C48.7421 45.3181 47.4279 47.0017 45.7627 48.2857C45.6027 48.4154 45.4726 48.578 45.3813 48.7626C45.29 48.9471 45.2395 49.1492 45.2334 49.355V53.3907H41.4018V49.3604C41.4018 48.6306 41.6593 48.0291 40.9153 48.0291C40.1712 48.0291 39.8567 48.6306 39.8567 49.3604V50.6194C39.3405 50.7075 38.8195 50.7649 38.2964 50.7914H31.6206V49.3604C31.6206 48.6306 31.3773 48.0291 30.6333 48.0291C29.8892 48.0291 30.1467 48.6306 30.1467 49.3604V53.396H26.2572V50.2479C26.2561 50.0128 26.1933 49.7822 26.0753 49.5789C25.9572 49.3757 25.788 49.2069 25.5845 49.0895C23.7498 47.9857 22.231 46.427 21.1754 44.5642C20.1198 42.7013 19.5631 40.5975 19.5591 38.4564C19.5591 31.8625 23.8522 26.6212 30.349 26.5214C29.6834 26.1081 29.1052 25.5684 28.6471 24.9327C23.1376 25.8059 19.8033 29.7551 18.529 35.1078C18.466 35.5707 18.3744 36.0293 18.2546 36.4809C18.2546 36.6671 18.2546 36.8373 18.2546 37.0244C18.2652 37.1483 18.2652 37.273 18.2546 37.3969C18.204 37.4979 18.1315 37.5863 18.0424 37.6556C17.9533 37.725 17.8498 37.7736 17.7395 37.7979C16.8235 37.9119 16.8235 37.9119 16.1944 37.1679C15.771 36.7724 15.5057 36.2366 15.4479 35.66C15.39 35.0836 15.5435 34.5058 15.8799 34.034C16.1438 33.5595 16.4623 33.1176 16.8289 32.717C16.9526 32.5917 17.0672 32.4576 17.1719 32.316C17.3154 32.1441 17.4295 31.9151 17.2717 31.7582C17.1555 31.6386 17.0164 31.5435 16.8627 31.4785C16.7091 31.4136 16.5439 31.3802 16.3771 31.3802C16.2103 31.3802 16.0452 31.4136 15.8915 31.4785C15.7378 31.5435 15.5987 31.6386 15.4825 31.7582C14.8107 32.4305 14.3416 33.278 14.1287 34.2042C13.9158 35.1305 13.9678 36.0978 14.2786 36.9959C14.4589 37.8616 14.9609 38.6268 15.6833 39.1368C16.4057 39.6469 17.2947 39.8638 18.1708 39.744H18.2599C18.4405 41.802 19.0707 43.7954 20.1062 45.5831C21.1622 47.4503 22.6366 49.0472 24.4136 50.2488V53.7409C24.4136 54.0747 24.5463 54.395 24.7824 54.6311C25.0186 54.8672 25.3388 54.9999 25.6727 54.9999H30.7099C30.8757 55.0014 31.0401 54.9699 31.1936 54.9072C31.347 54.8444 31.4865 54.7518 31.6036 54.6346C31.7209 54.5173 31.8136 54.378 31.8763 54.2244C31.939 54.071 31.9705 53.9066 31.969 53.7409V52.4934H38.2955C38.7737 52.5046 39.252 52.4808 39.7266 52.4221V53.7391C39.7266 54.0729 39.8593 54.3932 40.0954 54.6293C40.3315 54.8655 40.6518 54.9981 40.9857 54.9981H46.0202C46.186 54.9997 46.3504 54.9681 46.5039 54.9054C46.6573 54.8427 46.7968 54.75 46.9139 54.6328C47.0312 54.5155 47.1239 54.3762 47.1866 54.2227C47.2493 54.0692 47.2809 53.9048 47.2793 53.7391V49.3604C48.742 48.1236 49.9395 46.6039 50.7999 44.8926H52.3147C53.3126 44.893 54.2699 44.4971 54.976 43.792C55.6822 43.0869 56.0794 42.1302 56.0803 41.1323V38.4849C56.0803 37.9864 55.9817 37.4927 55.79 37.0325C55.5984 36.5721 55.3176 36.1544 54.9637 35.8032C54.6098 35.452 54.1899 35.1743 53.7283 34.9861C53.2666 34.7979 52.7723 34.7029 52.2737 34.7068Z" fill="#18DCFF"/>
</svg>
